<svg id="my-svg" width="100%" xmlns="http://www.w3.org/2000/svg" xmlns:xlink="http://www.w3.org/1999/xlink" class="classDiagram" style="max-width: 1160.77px; background-color: white;" viewBox="-35 0 1160.765625 1056" role="graphics-document document" aria-roledescription="class"><style>#my-svg{font-family:"trebuchet ms",verdana,arial,sans-serif;font-size:16px;fill:#333;}@keyframes edge-animation-frame{from{stroke-dashoffset:0;}}@keyframes dash{to{stroke-dashoffset:0;}}#my-svg .edge-animation-slow{stroke-dasharray:9,5!important;stroke-dashoffset:900;animation:dash 50s linear infinite;stroke-linecap:round;}#my-svg .edge-animation-fast{stroke-dasharray:9,5!important;stroke-dashoffset:900;animation:dash 20s linear infinite;stroke-linecap:round;}#my-svg .error-icon{fill:#552222;}#my-svg .error-text{fill:#552222;stroke:#552222;}#my-svg .edge-thickness-normal{stroke-width:1px;}#my-svg .edge-thickness-thick{stroke-width:3.5px;}#my-svg .edge-pattern-solid{stroke-dasharray:0;}#my-svg .edge-thickness-invisible{stroke-width:0;fill:none;}#my-svg .edge-pattern-dashed{stroke-dasharray:3;}#my-svg .edge-pattern-dotted{stroke-dasharray:2;}#my-svg .marker{fill:#333333;stroke:#333333;}#my-svg .marker.cross{stroke:#333333;}#my-svg svg{font-family:"trebuchet ms",verdana,arial,sans-serif;font-size:16px;}#my-svg p{margin:0;}#my-svg g.classGroup text{fill:#9370DB;stroke:none;font-family:"trebuchet ms",verdana,arial,sans-serif;font-size:10px;}#my-svg g.classGroup text .title{font-weight:bolder;}#my-svg .cluster-label text{fill:#333;}#my-svg .cluster-label span{color:#333;}#my-svg .cluster-label span p{background-color:transparent;}#my-svg .cluster rect{fill:#ffffde;stroke:#aaaa33;stroke-width:1px;}#my-svg .cluster text{fill:#333;}#my-svg .cluster span{color:#333;}#my-svg .nodeLabel,#my-svg .edgeLabel{color:#131300;}#my-svg .noteLabel .nodeLabel,#my-svg .noteLabel .edgeLabel{color:black;}#my-svg .edgeLabel .label rect{fill:#ECECFF;}#my-svg .label text{fill:#131300;}#my-svg .labelBkg{background:#ECECFF;}#my-svg .edgeLabel .label span{background:#ECECFF;}#my-svg .classTitle{font-weight:bolder;}#my-svg .node rect,#my-svg .node circle,#my-svg .node ellipse,#my-svg .node polygon,#my-svg .node path{fill:#ECECFF;stroke:#9370DB;stroke-width:1;}#my-svg .divider{stroke:#9370DB;stroke-width:1;}#my-svg g.clickable{cursor:pointer;}#my-svg g.classGroup rect{fill:#ECECFF;stroke:#9370DB;}#my-svg g.classGroup line{stroke:#9370DB;stroke-width:1;}#my-svg .classLabel .box{stroke:none;stroke-width:0;fill:#ECECFF;opacity:0.5;}#my-svg .classLabel .label{fill:#9370DB;font-size:10px;}#my-svg .relation{stroke:#333333;stroke-width:1;fill:none;}#my-svg .dashed-line{stroke-dasharray:3;}#my-svg .dotted-line{stroke-dasharray:1 2;}#my-svg [id$="-compositionStart"],#my-svg .composition{fill:#333333!important;stroke:#333333!important;stroke-width:1;}#my-svg [id$="-compositionEnd"],#my-svg .composition{fill:#333333!important;stroke:#333333!important;stroke-width:1;}#my-svg [id$="-dependencyStart"],#my-svg .dependency{fill:#333333!important;stroke:#333333!important;stroke-width:1;}#my-svg [id$="-dependencyEnd"],#my-svg .dependency{fill:#333333!important;stroke:#333333!important;stroke-width:1;}#my-svg [id$="-extensionStart"],#my-svg .extension{fill:transparent!important;stroke:#333333!important;stroke-width:1;}#my-svg [id$="-extensionEnd"],#my-svg .extension{fill:transparent!important;stroke:#333333!important;stroke-width:1;}#my-svg [id$="-aggregationStart"],#my-svg .aggregation{fill:transparent!important;stroke:#333333!important;stroke-width:1;}#my-svg [id$="-aggregationEnd"],#my-svg .aggregation{fill:transparent!important;stroke:#333333!important;stroke-width:1;}#my-svg [id$="-lollipopStart"],#my-svg .lollipop{fill:#ECECFF!important;stroke:#333333!important;stroke-width:1;}#my-svg [id$="-lollipopEnd"],#my-svg .lollipop{fill:#ECECFF!important;stroke:#333333!important;stroke-width:1;}#my-svg .edgeTerminals{font-size:11px;line-height:initial;}#my-svg .classTitleText{text-anchor:middle;font-size:18px;fill:#333;}#my-svg .edgeLabel[data-look="neo"]{background-color:rgba(232,232,232, 0.8);text-align:center;}#my-svg .edgeLabel[data-look="neo"] p{background-color:rgba(232,232,232, 0.8);}#my-svg .edgeLabel[data-look="neo"] rect{opacity:0.5;background-color:rgba(232,232,232, 0.8);fill:rgba(232,232,232, 0.8);}#my-svg .label-icon{display:inline-block;height:1em;overflow:visible;vertical-align:-0.125em;}#my-svg .node .label-icon path{fill:currentColor;stroke:revert;stroke-width:revert;}#my-svg .node .neo-node{stroke:#9370DB;}#my-svg [data-look="neo"].node rect,#my-svg [data-look="neo"].cluster rect,#my-svg [data-look="neo"].node polygon{stroke:#9370DB;filter:drop-shadow(1px 2px 2px rgba(185, 185, 185, 1));}#my-svg [data-look="neo"].swimlane.cluster rect{filter:none;}#my-svg [data-look="neo"].node path{stroke:#9370DB;stroke-width:1px;}#my-svg [data-look="neo"].node .outer-path{filter:drop-shadow(1px 2px 2px rgba(185, 185, 185, 1));}#my-svg [data-look="neo"].node .neo-line path{stroke:#9370DB;filter:none;}#my-svg [data-look="neo"].node circle{stroke:#9370DB;filter:drop-shadow(1px 2px 2px rgba(185, 185, 185, 1));}#my-svg [data-look="neo"].node circle .state-start{fill:#000000;}#my-svg [data-look="neo"].icon-shape .icon{fill:#9370DB;filter:drop-shadow(1px 2px 2px rgba(185, 185, 185, 1));}#my-svg [data-look="neo"].icon-shape .icon-neo path{stroke:#9370DB;filter:drop-shadow(1px 2px 2px rgba(185, 185, 185, 1));}#my-svg :root{--mermaid-font-family:"trebuchet ms",verdana,arial,sans-serif;}</style><g><defs><marker id="my-svg_class-aggregationStart" class="marker aggregation class" refX="18" refY="7" markerWidth="190" markerHeight="240" orient="auto"><path d="M 18,7 L9,13 L1,7 L9,1 Z"/></marker></defs><defs><marker id="my-svg_class-aggregationEnd" class="marker aggregation class" refX="1" refY="7" markerWidth="20" markerHeight="28" orient="auto"><path d="M 18,7 L9,13 L1,7 L9,1 Z"/></marker></defs><defs><marker id="my-svg_class-aggregationStart-margin" class="marker aggregation class" refX="15" refY="7" markerWidth="190" markerHeight="240" orient="auto" markerUnits="userSpaceOnUse"><path d="M 18,7 L9,13 L1,7 L9,1 Z" style="stroke-width: 2;"/></marker></defs><defs><marker id="my-svg_class-aggregationEnd-margin" class="marker aggregation class" refX="1" refY="7" markerWidth="20" markerHeight="28" orient="auto" markerUnits="userSpaceOnUse"><path d="M 18,7 L9,13 L1,7 L9,1 Z" style="stroke-width: 2;"/></marker></defs><defs><marker id="my-svg_class-extensionStart" class="marker extension class" refX="18" refY="7" markerWidth="20" markerHeight="28" orient="auto" markerUnits="userSpaceOnUse"><path d="M 1,7 L18,13 V 1 Z"/></marker></defs><defs><marker id="my-svg_class-extensionEnd" class="marker extension class" refX="1" refY="7" markerWidth="20" markerHeight="28" orient="auto"><path d="M 1,1 V 13 L18,7 Z"/></marker></defs><marker id="my-svg_class-extensionStart-margin" class="marker extension class" refX="18" refY="7" markerWidth="20" markerHeight="28" orient="auto" markerUnits="userSpaceOnUse" viewBox="0 0 20 14"><polygon points="10,7 18,13 18,1" style="stroke-width: 2; stroke-dasharray: 0;"/></marker><defs><marker id="my-svg_class-extensionEnd-margin" class="marker extension class" refX="9" refY="7" markerWidth="20" markerHeight="28" orient="auto" markerUnits="userSpaceOnUse" viewBox="0 0 20 14"><polygon points="10,1 10,13 18,7" style="stroke-width: 2; stroke-dasharray: 0;"/></marker></defs><defs><marker id="my-svg_class-compositionStart" class="marker composition class" refX="18" refY="7" markerWidth="190" markerHeight="240" orient="auto"><path d="M 18,7 L9,13 L1,7 L9,1 Z"/></marker></defs><defs><marker id="my-svg_class-compositionEnd" class="marker composition class" refX="1" refY="7" markerWidth="20" markerHeight="28" orient="auto"><path d="M 18,7 L9,13 L1,7 L9,1 Z"/></marker></defs><defs><marker id="my-svg_class-compositionStart-margin" class="marker composition class" refX="15" refY="7" markerWidth="190" markerHeight="240" orient="auto" markerUnits="userSpaceOnUse"><path viewBox="0 0 15 15" d="M 18,7 L9,13 L1,7 L9,1 Z" style="stroke-width: 0;"/></marker></defs><defs><marker id="my-svg_class-compositionEnd-margin" class="marker composition class" refX="3.5" refY="7" markerWidth="20" markerHeight="28" orient="auto" markerUnits="userSpaceOnUse"><path d="M 18,7 L9,13 L1,7 L9,1 Z" style="stroke-width: 0;"/></marker></defs><defs><marker id="my-svg_class-dependencyStart" class="marker dependency class" refX="6" refY="7" markerWidth="190" markerHeight="240" orient="auto"><path d="M 5,7 L9,13 L1,7 L9,1 Z"/></marker></defs><defs><marker id="my-svg_class-dependencyEnd" class="marker dependency class" refX="13" refY="7" markerWidth="20" markerHeight="28" orient="auto"><path d="M 18,7 L9,13 L14,7 L9,1 Z"/></marker></defs><defs><marker id="my-svg_class-dependencyStart-margin" class="marker dependency class" refX="4" refY="7" markerWidth="190" markerHeight="240" orient="auto" markerUnits="userSpaceOnUse"><path d="M 5,7 L9,13 L1,7 L9,1 Z" style="stroke-width: 0;"/></marker></defs><defs><marker id="my-svg_class-dependencyEnd-margin" class="marker dependency class" refX="16" refY="7" markerWidth="20" markerHeight="28" orient="auto" markerUnits="userSpaceOnUse"><path d="M 18,7 L9,13 L14,7 L9,1 Z" style="stroke-width: 0;"/></marker></defs><defs><marker id="my-svg_class-lollipopStart" class="marker lollipop class" refX="13" refY="7" markerWidth="190" markerHeight="240" orient="auto"><circle fill="transparent" cx="7" cy="7" r="6"/></marker></defs><defs><marker id="my-svg_class-lollipopEnd" class="marker lollipop class" refX="1" refY="7" markerWidth="190" markerHeight="240" orient="auto"><circle fill="transparent" cx="7" cy="7" r="6"/></marker></defs><defs><marker id="my-svg_class-lollipopStart-margin" class="marker lollipop class" refX="13" refY="7" markerWidth="190" markerHeight="240" orient="auto" markerUnits="userSpaceOnUse"><circle fill="transparent" cx="7" cy="7" r="6" stroke-width="2"/></marker></defs><defs><marker id="my-svg_class-lollipopEnd-margin" class="marker lollipop class" refX="1" refY="7" markerWidth="190" markerHeight="240" orient="auto" markerUnits="userSpaceOnUse"><circle fill="transparent" cx="7" cy="7" r="6" stroke-width="2"/></marker></defs><g class="root"><g class="clusters"/><g class="edgePaths"><path d="M564.468,113.582L634.603,128.151C704.739,142.721,845.01,171.861,915.146,192.597C985.281,213.333,985.281,225.667,985.281,231.833L985.281,238" id="my-svg-id_Container_List_Array_1" class="edge-thickness-normal edge-pattern-solid relation" style=";;;" data-edge="true" data-et="edge" data-id="id_Container_List_Array_1" data-points="W3sieCI6NTQ3LjU3ODEyNSwieSI6MTEwLjA3MzA3NzAzNzYxMDU1fSx7IngiOjk4NS4yODEyNSwieSI6MjAxfSx7IngiOjk4NS4yODEyNSwieSI6MjM4fV0=" data-look="classic" marker-start="url(#my-svg_class-extensionStart)"/><path d="M357.34,129.004L323.863,141.003C290.385,153.003,223.431,177.001,189.954,193.167C156.477,209.333,156.477,217.667,156.477,221.833L156.477,226" id="my-svg-id_Container_ArrayNum_2" class="edge-thickness-normal edge-pattern-solid relation" style=";;;" data-edge="true" data-et="edge" data-id="id_Container_ArrayNum_2" data-points="W3sieCI6MzczLjU3ODEyNSwieSI6MTIzLjE4MzY2MDg4NjMxOTg0fSx7IngiOjE1Ni40NzY1NjI1LCJ5IjoyMDF9LHsieCI6MTU2LjQ3NjU2MjUsInkiOjIyNn1d" data-look="classic" marker-start="url(#my-svg_class-extensionStart)"/><path d="M460.578,193.25L460.578,194.542C460.578,195.833,460.578,198.417,460.578,207.875C460.578,217.333,460.578,233.667,460.578,241.833L460.578,250" id="my-svg-id_Container_Range_3" class="edge-thickness-normal edge-pattern-solid relation" style=";;;" data-edge="true" data-et="edge" data-id="id_Container_Range_3" data-points="W3sieCI6NDYwLjU3ODEyNSwieSI6MTc2fSx7IngiOjQ2MC41NzgxMjUsInkiOjIwMX0seyJ4Ijo0NjAuNTc4MTI1LCJ5IjoyNTB9XQ==" data-look="classic" marker-start="url(#my-svg_class-extensionStart)"/><path d="M356.744,115.213L292.786,129.511C228.829,143.808,100.915,172.404,36.957,204.869C-27,237.333,-27,273.667,-27,310C-27,346.333,-27,382.667,-27,419C-27,455.333,-27,491.667,-27,530C-27,568.333,-27,608.667,39.525,644.737C106.051,680.808,239.102,712.615,305.627,728.519L372.152,744.423" id="my-svg-id_Container_Map_4" class="edge-thickness-normal edge-pattern-solid relation" style=";;;" data-edge="true" data-et="edge" data-id="id_Container_Map_4" data-points="W3sieCI6MzczLjU3ODEyNSwieSI6MTExLjQ0OTE5MDgzNDgwMjExfSx7IngiOi0yNywieSI6MjAxfSx7IngiOi0yNywieSI6MzEwfSx7IngiOi0yNywieSI6NDE5fSx7IngiOi0yNywieSI6NTI4fSx7IngiOi0yNywieSI6NjQ5fSx7IngiOjM3Mi4xNTIzNDM3NSwieSI6NzQ0LjQyMjk1NDAzMzI3ODh9XQ==" data-look="classic" marker-start="url(#my-svg_class-extensionStart)"/><path d="M563.38,137.016L587.733,147.68C612.086,158.344,660.793,179.672,685.147,196.503C709.5,213.333,709.5,225.667,709.5,231.833L709.5,238" id="my-svg-id_Container_VMap_5" class="edge-thickness-normal edge-pattern-solid relation" style=";;;" data-edge="true" data-et="edge" data-id="id_Container_VMap_5" data-points="W3sieCI6NTQ3LjU3ODEyNSwieSI6MTMwLjA5NjI5MDI1MTcxMDV9LHsieCI6NzA5LjUsInkiOjIwMX0seyJ4Ijo3MDkuNSwieSI6MjM4fV0=" data-look="classic" marker-start="url(#my-svg_class-extensionStart)"/><path d="M479.141,871.25L479.141,872.542C479.141,873.833,479.141,876.417,479.141,881.875C479.141,887.333,479.141,895.667,479.141,899.833L479.141,904" id="my-svg-id_Map_Object_6" class="edge-thickness-normal edge-pattern-solid relation" style=";;;" data-edge="true" data-et="edge" data-id="id_Map_Object_6" data-points="W3sieCI6NDc5LjE0MDYyNSwieSI6ODU0fSx7IngiOjQ3OS4xNDA2MjUsInkiOjg3OX0seyJ4Ijo0NzkuMTQwNjI1LCJ5Ijo5MDR9XQ==" data-look="classic" marker-start="url(#my-svg_class-extensionStart)"/><path d="M985.281,399.25L985.281,402.542C985.281,405.833,985.281,412.417,985.281,419.875C985.281,427.333,985.281,435.667,985.281,439.833L985.281,444" id="my-svg-id_List_Array_Element_7" class="edge-thickness-normal edge-pattern-solid relation" style=";;;" data-edge="true" data-et="edge" data-id="id_List_Array_Element_7" data-points="W3sieCI6OTg1LjI4MTI1LCJ5IjozODJ9LHsieCI6OTg1LjI4MTI1LCJ5Ijo0MTl9LHsieCI6OTg1LjI4MTI1LCJ5Ijo0NDR9XQ==" data-look="classic" marker-start="url(#my-svg_class-extensionStart)"/><path d="M985.281,612L985.281,618.167C985.281,624.333,985.281,636.667,919.728,658.505C854.176,680.343,723.07,711.685,657.517,727.357L591.964,743.028" id="my-svg-id_Element_Map_8" class="edge-thickness-normal edge-pattern-dashed relation" style=";;;" data-edge="true" data-et="edge" data-id="id_Element_Map_8" data-points="W3sieCI6OTg1LjI4MTI1LCJ5Ijo2MTJ9LHsieCI6OTg1LjI4MTI1LCJ5Ijo2NDl9LHsieCI6NTg2LjEyODkwNjI1LCJ5Ijo3NDQuNDIyOTU0MDMzMjc4OH1d" data-look="classic" marker-end="url(#my-svg_class-dependencyEnd)"/></g><g class="edgeLabels"><g class="edgeLabel"><g class="label" data-id="id_Container_List_Array_1" transform="translate(0, 0)"><foreignObject width="0" height="0"><div xmlns="http://www.w3.org/1999/xhtml" class="labelBkg" style="display: table-cell; white-space: nowrap; line-height: 1.5; max-width: 200px; text-align: center;"><span class="edgeLabel"></span></div></foreignObject></g></g><g class="edgeLabel"><g class="label" data-id="id_Container_ArrayNum_2" transform="translate(0, 0)"><foreignObject width="0" height="0"><div xmlns="http://www.w3.org/1999/xhtml" class="labelBkg" style="display: table-cell; white-space: nowrap; line-height: 1.5; max-width: 200px; text-align: center;"><span class="edgeLabel"></span></div></foreignObject></g></g><g class="edgeLabel"><g class="label" data-id="id_Container_Range_3" transform="translate(0, 0)"><foreignObject width="0" height="0"><div xmlns="http://www.w3.org/1999/xhtml" class="labelBkg" style="display: table-cell; white-space: nowrap; line-height: 1.5; max-width: 200px; text-align: center;"><span class="edgeLabel"></span></div></foreignObject></g></g><g class="edgeLabel"><g class="label" data-id="id_Container_Map_4" transform="translate(0, 0)"><foreignObject width="0" height="0"><div xmlns="http://www.w3.org/1999/xhtml" class="labelBkg" style="display: table-cell; white-space: nowrap; line-height: 1.5; max-width: 200px; text-align: center;"><span class="edgeLabel"></span></div></foreignObject></g></g><g class="edgeLabel"><g class="label" data-id="id_Container_VMap_5" transform="translate(0, 0)"><foreignObject width="0" height="0"><div xmlns="http://www.w3.org/1999/xhtml" class="labelBkg" style="display: table-cell; white-space: nowrap; line-height: 1.5; max-width: 200px; text-align: center;"><span class="edgeLabel"></span></div></foreignObject></g></g><g class="edgeLabel"><g class="label" data-id="id_Map_Object_6" transform="translate(0, 0)"><foreignObject width="0" height="0"><div xmlns="http://www.w3.org/1999/xhtml" class="labelBkg" style="display: table-cell; white-space: nowrap; line-height: 1.5; max-width: 200px; text-align: center;"><span class="edgeLabel"></span></div></foreignObject></g></g><g class="edgeLabel"><g class="label" data-id="id_List_Array_Element_7" transform="translate(0, 0)"><foreignObject width="0" height="0"><div xmlns="http://www.w3.org/1999/xhtml" class="labelBkg" style="display: table-cell; white-space: nowrap; line-height: 1.5; max-width: 200px; text-align: center;"><span class="edgeLabel"></span></div></foreignObject></g></g><g class="edgeLabel" transform="translate(985.28125, 649)"><g class="label" data-id="id_Element_Map_8" transform="translate(-75.6171875, -12)"><foreignObject width="151.234375" height="24"><div xmlns="http://www.w3.org/1999/xhtml" class="labelBkg" style="display: table-cell; white-space: nowrap; line-height: 1.5; max-width: 200px; text-align: center;"><span class="edgeLabel"><p>also keyed attributes</p></span></div></foreignObject></g></g></g><g class="nodes"><g class="node default" id="my-svg-classId-Container-0" data-look="classic" transform="translate(460.578125, 92)"><g class="basic label-container outer-path"><path d="M-87 -84 L87 -84 L87 84 L-87 84" stroke="none" stroke-width="0" fill="#ECECFF" style=""/><path d="M-87 -84 C-45.70475076439725 -84, -4.409501528794493 -84, 87 -84 M-87 -84 C-41.60430178657527 -84, 3.7913964268494595 -84, 87 -84 M87 -84 C87 -23.60938118846927, 87 36.78123762306146, 87 84 M87 -84 C87 -41.57812638610145, 87 0.8437472277970954, 87 84 M87 84 C20.343076674078958 84, -46.313846651842084 84, -87 84 M87 84 C41.77920515533232 84, -3.441589689335359 84, -87 84 M-87 84 C-87 47.97904337276825, -87 11.958086745536505, -87 -84 M-87 84 C-87 41.355474523942235, -87 -1.289050952115531, -87 -84" stroke="#9370DB" stroke-width="1.3" fill="none" stroke-dasharray="0 0" style=""/></g><g class="annotation-group text" transform="translate(0, -60)"/><g class="label-group text" transform="translate(-36.703125, -60)"><g class="label" style="font-weight: bolder" transform="translate(0,-12)"><foreignObject width="73.40625" height="24"><div xmlns="http://www.w3.org/1999/xhtml" style="display: table-cell; white-space: nowrap; line-height: 1.5; max-width: 113px; text-align: center;"><span class="nodeLabel markdown-node-label" style=""><p>Container</p></span></div></foreignObject></g></g><g class="members-group text" transform="translate(-75, -12)"><g class="label" style="" transform="translate(0,-12)"><foreignObject width="113.296875" height="24"><div xmlns="http://www.w3.org/1999/xhtml" style="display: table-cell; white-space: nowrap; line-height: 1.5; max-width: 161px; text-align: center;"><span class="nodeLabel markdown-node-label" style=""><p>+TypeId type_id</p></span></div></foreignObject></g><g class="label" style="" transform="translate(0,12)"><foreignObject width="41.9375" height="24"><div xmlns="http://www.w3.org/1999/xhtml" style="display: table-cell; white-space: nowrap; line-height: 1.5; max-width: 95px; text-align: center;"><span class="nodeLabel markdown-node-label" style=""><p>+flags</p></span></div></foreignObject></g><g class="label" style="" transform="translate(0,36)"><foreignObject width="77.671875" height="24"><div xmlns="http://www.w3.org/1999/xhtml" style="display: table-cell; white-space: nowrap; line-height: 1.5; max-width: 128px; text-align: center;"><span class="nodeLabel markdown-node-label" style=""><p>+map_kind</p></span></div></foreignObject></g></g><g class="methods-group text" transform="translate(-75, 84)"/><g class="divider" style=""><path d="M-87 -36 C-30.64776097581315 -35.99967613655733, 25.7044780483737 -35.99935227311467, 87 -35.999 M-87 -36 C-25.270130642605835 -35.99964523063588, 36.45973871478833 -35.999290461271755, 87 -35.999" stroke="#9370DB" stroke-width="1.3" fill="none" stroke-dasharray="0 0" style=""/></g><g class="divider" style=""><path d="M-87 60 C-29.588068094446548 60.00032995363164, 27.823863811106904 60.000659907263284, 87 60.001 M-87 60 C-26.992844554327583 60.000344868709455, 33.014310891344834 60.00068973741892, 87 60.001" stroke="#9370DB" stroke-width="1.3" fill="none" stroke-dasharray="0 0" style=""/></g></g><g class="node default" id="my-svg-classId-List_Array-1" data-look="classic" transform="translate(985.28125, 310)"><g class="basic label-container outer-path"><path d="M-132.484375 -72 L132.484375 -72 L132.484375 72 L-132.484375 72" stroke="none" stroke-width="0" fill="#ECECFF" style=""/><path d="M-132.484375 -72 C-61.231992504127675 -72, 10.02038999174465 -72, 132.484375 -72 M-132.484375 -72 C-42.30155668145319 -72, 47.881261637093615 -72, 132.484375 -72 M132.484375 -72 C132.484375 -38.46032849033148, 132.484375 -4.9206569806629545, 132.484375 72 M132.484375 -72 C132.484375 -22.08506211640522, 132.484375 27.829875767189563, 132.484375 72 M132.484375 72 C46.95567623782647 72, -38.57302252434707 72, -132.484375 72 M132.484375 72 C27.837166173854726 72, -76.81004265229055 72, -132.484375 72 M-132.484375 72 C-132.484375 36.606590416296875, -132.484375 1.2131808325937499, -132.484375 -72 M-132.484375 72 C-132.484375 19.10000410537866, -132.484375 -33.79999178924268, -132.484375 -72" stroke="#9370DB" stroke-width="1.3" fill="none" stroke-dasharray="0 0" style=""/></g><g class="annotation-group text" transform="translate(0, -48)"/><g class="label-group text" transform="translate(-38.296875, -48)"><g class="label" style="font-weight: bolder" transform="translate(0,-12)"><foreignObject width="76.59375" height="24"><div xmlns="http://www.w3.org/1999/xhtml" style="display: table-cell; white-space: nowrap; line-height: 1.5; max-width: 120px; text-align: center;"><span class="nodeLabel markdown-node-label" style=""><p>List_Array</p></span></div></foreignObject></g></g><g class="members-group text" transform="translate(-120.484375, 0)"><g class="label" style="" transform="translate(0,-12)"><foreignObject width="85.40625" height="24"><div xmlns="http://www.w3.org/1999/xhtml" style="display: table-cell; white-space: nowrap; line-height: 1.5; max-width: 131px; text-align: center;"><span class="nodeLabel markdown-node-label" style=""><p>+Item items</p></span></div></foreignObject></g><g class="label" style="" transform="translate(0,12)"><foreignObject width="202.671875" height="24"><div xmlns="http://www.w3.org/1999/xhtml" style="display: table-cell; white-space: nowrap; line-height: 1.5; max-width: 234px; text-align: center;"><span class="nodeLabel markdown-node-label" style=""><p>+int64 length extra capacity</p></span></div></foreignObject></g></g><g class="methods-group text" transform="translate(-120.484375, 72)"/><g class="divider" style=""><path d="M-132.484375 -24 C-67.69263540750019 -23.999755474033854, -2.900895815000382 -23.999510948067705, 132.484375 -23.999 M-132.484375 -24 C-78.05333971369181 -23.999794575642273, -23.622304427383625 -23.999589151284546, 132.484375 -23.999" stroke="#9370DB" stroke-width="1.3" fill="none" stroke-dasharray="0 0" style=""/></g><g class="divider" style=""><path d="M-132.484375 48 C-48.63627372293476 48.000316445246, 35.21182755413048 48.00063289049201, 132.484375 48.001 M-132.484375 48 C-63.98822481744881 48.000258506522684, 4.5079253651023805 48.00051701304537, 132.484375 48.001" stroke="#9370DB" stroke-width="1.3" fill="none" stroke-dasharray="0 0" style=""/></g></g><g class="node default" id="my-svg-classId-ArrayNum-2" data-look="classic" transform="translate(156.4765625, 310)"><g class="basic label-container outer-path"><path d="M-148.4765625 -84 L148.4765625 -84 L148.4765625 84 L-148.4765625 84" stroke="none" stroke-width="0" fill="#ECECFF" style=""/><path d="M-148.4765625 -84 C-56.56660406508324 -84, 35.34335436983352 -84, 148.4765625 -84 M-148.4765625 -84 C-62.67980270126691 -84, 23.116957097466184 -84, 148.4765625 -84 M148.4765625 -84 C148.4765625 -31.71374291056022, 148.4765625 20.57251417887956, 148.4765625 84 M148.4765625 -84 C148.4765625 -35.617747342199664, 148.4765625 12.764505315600672, 148.4765625 84 M148.4765625 84 C72.98102741515179 84, -2.514507669696428 84, -148.4765625 84 M148.4765625 84 C58.99806561884776 84, -30.480431262304478 84, -148.4765625 84 M-148.4765625 84 C-148.4765625 20.5149288553836, -148.4765625 -42.9701422892328, -148.4765625 -84 M-148.4765625 84 C-148.4765625 29.361231751884326, -148.4765625 -25.27753649623135, -148.4765625 -84" stroke="#9370DB" stroke-width="1.3" fill="none" stroke-dasharray="0 0" style=""/></g><g class="annotation-group text" transform="translate(0, -60)"/><g class="label-group text" transform="translate(-37.125, -60)"><g class="label" style="font-weight: bolder" transform="translate(0,-12)"><foreignObject width="74.25" height="24"><div xmlns="http://www.w3.org/1999/xhtml" style="display: table-cell; white-space: nowrap; line-height: 1.5; max-width: 119px; text-align: center;"><span class="nodeLabel markdown-node-label" style=""><p>ArrayNum</p></span></div></foreignObject></g></g><g class="members-group text" transform="translate(-136.4765625, -12)"><g class="label" style="" transform="translate(0,-12)"><foreignObject width="215.4375" height="24"><div xmlns="http://www.w3.org/1999/xhtml" style="display: table-cell; white-space: nowrap; line-height: 1.5; max-width: 245px; text-align: center;"><span class="nodeLabel markdown-node-label" style=""><p>+union items float_items data</p></span></div></foreignObject></g><g class="label" style="" transform="translate(0,12)"><foreignObject width="213.03125" height="24"><div xmlns="http://www.w3.org/1999/xhtml" style="display: table-cell; white-space: nowrap; line-height: 1.5; max-width: 246px; text-align: center;"><span class="nodeLabel markdown-node-label" style=""><p>+elem_type in map_kind byte</p></span></div></foreignObject></g><g class="label" style="" transform="translate(0,36)"><foreignObject width="235.828125" height="24"><div xmlns="http://www.w3.org/1999/xhtml" style="display: table-cell; white-space: nowrap; line-height: 1.5; max-width: 272px; text-align: center;"><span class="nodeLabel markdown-node-label" style=""><p>+ArrayNumShape in extra for n-d</p></span></div></foreignObject></g></g><g class="methods-group text" transform="translate(-136.4765625, 84)"/><g class="divider" style=""><path d="M-148.4765625 -36 C-46.5574668150019 -35.99965678389246, 55.361628869996196 -35.99931356778492, 148.4765625 -35.999 M-148.4765625 -36 C-45.56611495557307 -35.99965344548051, 57.34433258885386 -35.99930689096103, 148.4765625 -35.999" stroke="#9370DB" stroke-width="1.3" fill="none" stroke-dasharray="0 0" style=""/></g><g class="divider" style=""><path d="M-148.4765625 60 C-53.35360458097257 60.00032032987671, 41.769353338054856 60.000640659753415, 148.4765625 60.001 M-148.4765625 60 C-58.750693028179 60.00030215499322, 30.975176443642 60.00060430998644, 148.4765625 60.001" stroke="#9370DB" stroke-width="1.3" fill="none" stroke-dasharray="0 0" style=""/></g></g><g class="node default" id="my-svg-classId-Range-3" data-look="classic" transform="translate(460.578125, 310)"><g class="basic label-container outer-path"><path d="M-105.625 -60 L105.625 -60 L105.625 60 L-105.625 60" stroke="none" stroke-width="0" fill="#ECECFF" style=""/><path d="M-105.625 -60 C-54.44398928082889 -60, -3.262978561657775 -60, 105.625 -60 M-105.625 -60 C-28.009203703831915 -60, 49.60659259233617 -60, 105.625 -60 M105.625 -60 C105.625 -32.989134081506705, 105.625 -5.978268163013418, 105.625 60 M105.625 -60 C105.625 -35.97465038575239, 105.625 -11.949300771504781, 105.625 60 M105.625 60 C61.89883495670564 60, 18.172669913411283 60, -105.625 60 M105.625 60 C51.60557366756285 60, -2.413852664874298 60, -105.625 60 M-105.625 60 C-105.625 19.29739786561789, -105.625 -21.405204268764223, -105.625 -60 M-105.625 60 C-105.625 25.42184799067622, -105.625 -9.15630401864756, -105.625 -60" stroke="#9370DB" stroke-width="1.3" fill="none" stroke-dasharray="0 0" style=""/></g><g class="annotation-group text" transform="translate(0, -36)"/><g class="label-group text" transform="translate(-22.484375, -36)"><g class="label" style="font-weight: bolder" transform="translate(0,-12)"><foreignObject width="44.96875" height="24"><div xmlns="http://www.w3.org/1999/xhtml" style="display: table-cell; white-space: nowrap; line-height: 1.5; max-width: 91px; text-align: center;"><span class="nodeLabel markdown-node-label" style=""><p>Range</p></span></div></foreignObject></g></g><g class="members-group text" transform="translate(-93.625, 12)"><g class="label" style="" transform="translate(0,-12)"><foreignObject width="164.765625" height="24"><div xmlns="http://www.w3.org/1999/xhtml" style="display: table-cell; white-space: nowrap; line-height: 1.5; max-width: 199px; text-align: center;"><span class="nodeLabel markdown-node-label" style=""><p>+int64 start end length</p></span></div></foreignObject></g></g><g class="methods-group text" transform="translate(-93.625, 60)"/><g class="divider" style=""><path d="M-105.625 -12 C-33.264017994610526 -11.999657462807075, 39.09696401077895 -11.99931492561415, 105.625 -11.999 M-105.625 -12 C-34.9496583726837 -11.999665442169812, 35.7256832546326 -11.999330884339624, 105.625 -11.999" stroke="#9370DB" stroke-width="1.3" fill="none" stroke-dasharray="0 0" style=""/></g><g class="divider" style=""><path d="M-105.625 36 C-61.09112948767538 36.00021081122136, -16.557258975350763 36.00042162244272, 105.625 36.001 M-105.625 36 C-44.07621961707075 36.00029135517341, 17.472560765858503 36.00058271034682, 105.625 36.001" stroke="#9370DB" stroke-width="1.3" fill="none" stroke-dasharray="0 0" style=""/></g></g><g class="node default" id="my-svg-classId-Map-4" data-look="classic" transform="translate(479.140625, 770)"><g class="basic label-container outer-path"><path d="M-106.98828125 -84 L106.98828125 -84 L106.98828125 84 L-106.98828125 84" stroke="none" stroke-width="0" fill="#ECECFF" style=""/><path d="M-106.98828125 -84 C-22.076443449355494 -84, 62.83539435128901 -84, 106.98828125 -84 M-106.98828125 -84 C-53.34124861870339 -84, 0.30578401259322163 -84, 106.98828125 -84 M106.98828125 -84 C106.98828125 -22.016714175788444, 106.98828125 39.96657164842311, 106.98828125 84 M106.98828125 -84 C106.98828125 -27.209730048428973, 106.98828125 29.580539903142054, 106.98828125 84 M106.98828125 84 C26.936637131746195 84, -53.11500698650761 84, -106.98828125 84 M106.98828125 84 C50.458208413619104 84, -6.0718644227617915 84, -106.98828125 84 M-106.98828125 84 C-106.98828125 18.475178623940337, -106.98828125 -47.049642752119325, -106.98828125 -84 M-106.98828125 84 C-106.98828125 25.428254739878966, -106.98828125 -33.14349052024207, -106.98828125 -84" stroke="#9370DB" stroke-width="1.3" fill="none" stroke-dasharray="0 0" style=""/></g><g class="annotation-group text" transform="translate(0, -60)"/><g class="label-group text" transform="translate(-14.8828125, -60)"><g class="label" style="font-weight: bolder" transform="translate(0,-12)"><foreignObject width="29.765625" height="24"><div xmlns="http://www.w3.org/1999/xhtml" style="display: table-cell; white-space: nowrap; line-height: 1.5; max-width: 79px; text-align: center;"><span class="nodeLabel markdown-node-label" style=""><p>Map</p></span></div></foreignObject></g></g><g class="members-group text" transform="translate(-94.98828125, -12)"><g class="label" style="" transform="translate(0,-12)"><foreignObject width="106.734375" height="24"><div xmlns="http://www.w3.org/1999/xhtml" style="display: table-cell; white-space: nowrap; line-height: 1.5; max-width: 156px; text-align: center;"><span class="nodeLabel markdown-node-label" style=""><p>+TypeMap type</p></span></div></foreignObject></g><g class="label" style="" transform="translate(0,12)"><foreignObject width="175.09375" height="24"><div xmlns="http://www.w3.org/1999/xhtml" style="display: table-cell; white-space: nowrap; line-height: 1.5; max-width: 211px; text-align: center;"><span class="nodeLabel markdown-node-label" style=""><p>+void data packed fields</p></span></div></foreignObject></g><g class="label" style="" transform="translate(0,36)"><foreignObject width="98.5625" height="24"><div xmlns="http://www.w3.org/1999/xhtml" style="display: table-cell; white-space: nowrap; line-height: 1.5; max-width: 141px; text-align: center;"><span class="nodeLabel markdown-node-label" style=""><p>+int data_cap</p></span></div></foreignObject></g></g><g class="methods-group text" transform="translate(-94.98828125, 84)"/><g class="divider" style=""><path d="M-106.98828125 -36 C-25.074808495040557 -35.99961718483652, 56.838664259918886 -35.99923436967303, 106.98828125 -35.999 M-106.98828125 -36 C-59.98703165251376 -35.999780343935576, -12.985782055027514 -35.99956068787115, 106.98828125 -35.999" stroke="#9370DB" stroke-width="1.3" fill="none" stroke-dasharray="0 0" style=""/></g><g class="divider" style=""><path d="M-106.98828125 60 C-62.22761563865028 60.000209184898985, -17.466950027300555 60.00041836979796, 106.98828125 60.001 M-106.98828125 60 C-23.975003491473473 60.00038795500212, 59.038274267053055 60.00077591000424, 106.98828125 60.001" stroke="#9370DB" stroke-width="1.3" fill="none" stroke-dasharray="0 0" style=""/></g></g><g class="node default" id="my-svg-classId-Object-5" data-look="classic" transform="translate(479.140625, 976)"><g class="basic label-container outer-path"><path d="M-87.8515625 -72 L87.8515625 -72 L87.8515625 72 L-87.8515625 72" stroke="none" stroke-width="0" fill="#ECECFF" style=""/><path d="M-87.8515625 -72 C-51.48572883263589 -72, -15.119895165271785 -72, 87.8515625 -72 M-87.8515625 -72 C-36.88135376737893 -72, 14.088854965242135 -72, 87.8515625 -72 M87.8515625 -72 C87.8515625 -42.640349130313126, 87.8515625 -13.28069826062626, 87.8515625 72 M87.8515625 -72 C87.8515625 -41.881700827024446, 87.8515625 -11.763401654048899, 87.8515625 72 M87.8515625 72 C42.3484031757707 72, -3.1547561484586026 72, -87.8515625 72 M87.8515625 72 C48.4115866751985 72, 8.971610850397 72, -87.8515625 72 M-87.8515625 72 C-87.8515625 37.41848803741512, -87.8515625 2.836976074830247, -87.8515625 -72 M-87.8515625 72 C-87.8515625 42.5412083669964, -87.8515625 13.082416733992801, -87.8515625 -72" stroke="#9370DB" stroke-width="1.3" fill="none" stroke-dasharray="0 0" style=""/></g><g class="annotation-group text" transform="translate(0, -48)"/><g class="label-group text" transform="translate(-25.078125, -48)"><g class="label" style="font-weight: bolder" transform="translate(0,-12)"><foreignObject width="50.15625" height="24"><div xmlns="http://www.w3.org/1999/xhtml" style="display: table-cell; white-space: nowrap; line-height: 1.5; max-width: 93px; text-align: center;"><span class="nodeLabel markdown-node-label" style=""><p>Object</p></span></div></foreignObject></g></g><g class="members-group text" transform="translate(-75.8515625, 0)"><g class="label" style="" transform="translate(0,-12)"><foreignObject width="126.625" height="24"><div xmlns="http://www.w3.org/1999/xhtml" style="display: table-cell; white-space: nowrap; line-height: 1.5; max-width: 169px; text-align: center;"><span class="nodeLabel markdown-node-label" style=""><p>+TypeObject type</p></span></div></foreignObject></g><g class="label" style="" transform="translate(0,12)"><foreignObject width="75.1875" height="24"><div xmlns="http://www.w3.org/1999/xhtml" style="display: table-cell; white-space: nowrap; line-height: 1.5; max-width: 123px; text-align: center;"><span class="nodeLabel markdown-node-label" style=""><p>+void data</p></span></div></foreignObject></g></g><g class="methods-group text" transform="translate(-75.8515625, 72)"/><g class="divider" style=""><path d="M-87.8515625 -24 C-17.70608697990967 -23.999600772749375, 52.43938854018066 -23.999201545498746, 87.8515625 -23.999 M-87.8515625 -24 C-42.541542985554955 -23.99974212172086, 2.7684765288900905 -23.99948424344172, 87.8515625 -23.999" stroke="#9370DB" stroke-width="1.3" fill="none" stroke-dasharray="0 0" style=""/></g><g class="divider" style=""><path d="M-87.8515625 48 C-24.396775777755906 48.00036114774124, 39.05801094448819 48.000722295482475, 87.8515625 48.001 M-87.8515625 48 C-51.6036571257413 48.0002063019959, -15.3557517514826 48.00041260399181, 87.8515625 48.001" stroke="#9370DB" stroke-width="1.3" fill="none" stroke-dasharray="0 0" style=""/></g></g><g class="node default" id="my-svg-classId-Element-6" data-look="classic" transform="translate(985.28125, 528)"><g class="basic label-container outer-path"><path d="M-105.65625 -84 L105.65625 -84 L105.65625 84 L-105.65625 84" stroke="none" stroke-width="0" fill="#ECECFF" style=""/><path d="M-105.65625 -84 C-44.24311999225409 -84, 17.170010015491826 -84, 105.65625 -84 M-105.65625 -84 C-52.19034589408133 -84, 1.2755582118373354 -84, 105.65625 -84 M105.65625 -84 C105.65625 -45.51164732971569, 105.65625 -7.023294659431386, 105.65625 84 M105.65625 -84 C105.65625 -21.824554279207305, 105.65625 40.35089144158539, 105.65625 84 M105.65625 84 C47.88136123035255 84, -9.893527539294894 84, -105.65625 84 M105.65625 84 C23.756852507566165 84, -58.14254498486767 84, -105.65625 84 M-105.65625 84 C-105.65625 27.90196587521811, -105.65625 -28.19606824956378, -105.65625 -84 M-105.65625 84 C-105.65625 20.091494643868124, -105.65625 -43.81701071226375, -105.65625 -84" stroke="#9370DB" stroke-width="1.3" fill="none" stroke-dasharray="0 0" style=""/></g><g class="annotation-group text" transform="translate(0, -60)"/><g class="label-group text" transform="translate(-30.875, -60)"><g class="label" style="font-weight: bolder" transform="translate(0,-12)"><foreignObject width="61.75" height="24"><div xmlns="http://www.w3.org/1999/xhtml" style="display: table-cell; white-space: nowrap; line-height: 1.5; max-width: 103px; text-align: center;"><span class="nodeLabel markdown-node-label" style=""><p>Element</p></span></div></foreignObject></g></g><g class="members-group text" transform="translate(-93.65625, -12)"><g class="label" style="" transform="translate(0,-12)"><foreignObject width="156.4375" height="24"><div xmlns="http://www.w3.org/1999/xhtml" style="display: table-cell; white-space: nowrap; line-height: 1.5; max-width: 197px; text-align: center;"><span class="nodeLabel markdown-node-label" style=""><p>+inherits List children</p></span></div></foreignObject></g><g class="label" style="" transform="translate(0,12)"><foreignObject width="110.984375" height="24"><div xmlns="http://www.w3.org/1999/xhtml" style="display: table-cell; white-space: nowrap; line-height: 1.5; max-width: 158px; text-align: center;"><span class="nodeLabel markdown-node-label" style=""><p>+TypeElmt type</p></span></div></foreignObject></g><g class="label" style="" transform="translate(0,36)"><foreignObject width="151.078125" height="24"><div xmlns="http://www.w3.org/1999/xhtml" style="display: table-cell; white-space: nowrap; line-height: 1.5; max-width: 186px; text-align: center;"><span class="nodeLabel markdown-node-label" style=""><p>+void data attributes</p></span></div></foreignObject></g></g><g class="methods-group text" transform="translate(-93.65625, 84)"/><g class="divider" style=""><path d="M-105.65625 -36 C-21.897648782649185 -35.9996036268502, 61.86095243470163 -35.9992072537004, 105.65625 -35.999 M-105.65625 -36 C-43.97785544291286 -35.9997081176241, 17.700539114174276 -35.999416235248205, 105.65625 -35.999" stroke="#9370DB" stroke-width="1.3" fill="none" stroke-dasharray="0 0" style=""/></g><g class="divider" style=""><path d="M-105.65625 60 C-60.55893323115541 60.000213415281955, -15.461616462310815 60.00042683056392, 105.65625 60.001 M-105.65625 60 C-30.145923415199306 60.00035733961116, 45.36440316960139 60.000714679222334, 105.65625 60.001" stroke="#9370DB" stroke-width="1.3" fill="none" stroke-dasharray="0 0" style=""/></g></g><g class="node default" id="my-svg-classId-VMap-7" data-look="classic" transform="translate(709.5, 310)"><g class="basic label-container outer-path"><path d="M-93.296875 -72 L93.296875 -72 L93.296875 72 L-93.296875 72" stroke="none" stroke-width="0" fill="#ECECFF" style=""/><path d="M-93.296875 -72 C-31.21636473329744 -72, 30.86414553340512 -72, 93.296875 -72 M-93.296875 -72 C-38.36746865375099 -72, 16.56193769249802 -72, 93.296875 -72 M93.296875 -72 C93.296875 -19.589798202500084, 93.296875 32.82040359499983, 93.296875 72 M93.296875 -72 C93.296875 -20.073207594555186, 93.296875 31.85358481088963, 93.296875 72 M93.296875 72 C19.022142070871553 72, -55.252590858256895 72, -93.296875 72 M93.296875 72 C30.30085945166165 72, -32.6951560966767 72, -93.296875 72 M-93.296875 72 C-93.296875 17.816326356784977, -93.296875 -36.367347286430046, -93.296875 -72 M-93.296875 72 C-93.296875 17.347631083535994, -93.296875 -37.30473783292801, -93.296875 -72" stroke="#9370DB" stroke-width="1.3" fill="none" stroke-dasharray="0 0" style=""/></g><g class="annotation-group text" transform="translate(0, -48)"/><g class="label-group text" transform="translate(-19.859375, -48)"><g class="label" style="font-weight: bolder" transform="translate(0,-12)"><foreignObject width="39.71875" height="24"><div xmlns="http://www.w3.org/1999/xhtml" style="display: table-cell; white-space: nowrap; line-height: 1.5; max-width: 91px; text-align: center;"><span class="nodeLabel markdown-node-label" style=""><p>VMap</p></span></div></foreignObject></g></g><g class="members-group text" transform="translate(-81.296875, 0)"><g class="label" style="" transform="translate(0,-12)"><foreignObject width="75.1875" height="24"><div xmlns="http://www.w3.org/1999/xhtml" style="display: table-cell; white-space: nowrap; line-height: 1.5; max-width: 123px; text-align: center;"><span class="nodeLabel markdown-node-label" style=""><p>+void data</p></span></div></foreignObject></g><g class="label" style="" transform="translate(0,12)"><foreignObject width="142.734375" height="24"><div xmlns="http://www.w3.org/1999/xhtml" style="display: table-cell; white-space: nowrap; line-height: 1.5; max-width: 190px; text-align: center;"><span class="nodeLabel markdown-node-label" style=""><p>+VMapVtable vtable</p></span></div></foreignObject></g></g><g class="methods-group text" transform="translate(-81.296875, 72)"/><g class="divider" style=""><path d="M-93.296875 -24 C-48.06619343491275 -23.999757598089083, -2.8355118698254955 -23.999515196178166, 93.296875 -23.999 M-93.296875 -24 C-38.504287789001886 -23.999706353577164, 16.28829942199623 -23.999412707154328, 93.296875 -23.999" stroke="#9370DB" stroke-width="1.3" fill="none" stroke-dasharray="0 0" style=""/></g><g class="divider" style=""><path d="M-93.296875 48 C-31.237952018867276 48.000332588433324, 30.82097096226545 48.000665176866654, 93.296875 48.001 M-93.296875 48 C-44.56998290351937 48.00026113892934, 4.156909192961265 48.00052227785868, 93.296875 48.001" stroke="#9370DB" stroke-width="1.3" fill="none" stroke-dasharray="0 0" style=""/></g></g></g></g></g><defs><filter id="my-svg-drop-shadow" height="130%" width="130%"><feDropShadow dx="4" dy="4" stdDeviation="0" flood-opacity="0.06" flood-color="#000000"/></filter></defs><defs><filter id="my-svg-drop-shadow-small" height="150%" width="150%"><feDropShadow dx="2" dy="2" stdDeviation="0" flood-opacity="0.06" flood-color="#000000"/></filter></defs></svg>