<?xml version="1.0" encoding="UTF-8" standalone="no"?>
<!DOCTYPE svg PUBLIC "-//W3C//DTD SVG 1.1//EN"
 "http://www.w3.org/Graphics/SVG/1.1/DTD/svg11.dtd">
<!-- Generated by graphviz version 14.1.3 (20260303.0454)
 -->
<!-- Title: TypeHierarchy Pages: 1 -->
<svg width="605pt" height="283pt"
 viewBox="0.00 0.00 605.00 283.00" xmlns="http://www.w3.org/2000/svg" xmlns:xlink="http://www.w3.org/1999/xlink">
<g id="graph0" class="graph" transform="scale(1 1) rotate(0) translate(4 278.6)">
<title>TypeHierarchy</title>
<polygon fill="white" stroke="none" points="-4,4 -4,-278.6 601,-278.6 601,4 -4,4"/>
<!-- any -->
<g id="node1" class="node">
<title>any</title>
<path fill="#e8f0fe" stroke="#4285f4" stroke-width="1.5" d="M323.8,-274.6C323.8,-274.6 284.2,-274.6 284.2,-274.6 280.6,-274.6 277,-271 277,-267.4 277,-267.4 277,-260.2 277,-260.2 277,-256.6 280.6,-253 284.2,-253 284.2,-253 323.8,-253 323.8,-253 327.4,-253 331,-256.6 331,-260.2 331,-260.2 331,-267.4 331,-267.4 331,-271 327.4,-274.6 323.8,-274.6"/>
<text xml:space="preserve" text-anchor="middle" x="304" y="-259.35" font-family="Helvetica,sans-Serif" font-size="11.00">any</text>
</g>
<!-- dot1 -->
<g id="node2" class="node">
<title>dot1</title>
<ellipse fill="black" stroke="black" cx="304" cy="-213.2" rx="0.36" ry="0.36"/>
</g>
<!-- any&#45;&gt;dot1 -->
<g id="edge1" class="edge">
<title>any&#45;&gt;dot1</title>
<path fill="none" stroke="#666666" d="M304,-252.49C304,-238.67 304,-215.69 304,-214.27"/>
</g>
<!-- container -->
<g id="node5" class="node">
<title>container</title>
<path fill="#e8f5e9" stroke="#43a047" d="M237.68,-224C237.68,-224 196.32,-224 196.32,-224 192.72,-224 189.12,-220.4 189.12,-216.8 189.12,-216.8 189.12,-209.6 189.12,-209.6 189.12,-206 192.72,-202.4 196.32,-202.4 196.32,-202.4 237.68,-202.4 237.68,-202.4 241.28,-202.4 244.88,-206 244.88,-209.6 244.88,-209.6 244.88,-216.8 244.88,-216.8 244.88,-220.4 241.28,-224 237.68,-224"/>
<text xml:space="preserve" text-anchor="middle" x="217" y="-208.75" font-family="Helvetica,sans-Serif" font-size="11.00">container</text>
</g>
<!-- any&#45;&gt;container -->
<g id="edge4" class="edge">
<title>any&#45;&gt;container</title>
<path fill="none" stroke="#666666" d="M285.12,-252.25C272.41,-245.15 255.51,-235.71 241.73,-228.01"/>
<polygon fill="#666666" stroke="#666666" points="242.83,-226.22 236.57,-225.13 240.78,-229.89 242.83,-226.22"/>
</g>
<!-- type -->
<g id="node6" class="node">
<title>type</title>
<path fill="#f3e5f5" stroke="#8e24aa" d="M372.8,-224C372.8,-224 333.2,-224 333.2,-224 329.6,-224 326,-220.4 326,-216.8 326,-216.8 326,-209.6 326,-209.6 326,-206 329.6,-202.4 333.2,-202.4 333.2,-202.4 372.8,-202.4 372.8,-202.4 376.4,-202.4 380,-206 380,-209.6 380,-209.6 380,-216.8 380,-216.8 380,-220.4 376.4,-224 372.8,-224"/>
<text xml:space="preserve" text-anchor="middle" x="353" y="-208.75" font-family="Helvetica,sans-Serif" font-size="11.00">type</text>
</g>
<!-- any&#45;&gt;type -->
<g id="edge10" class="edge">
<title>any&#45;&gt;type</title>
<path fill="none" stroke="#666666" d="M314.39,-252.49C321.15,-245.79 330.08,-236.94 337.64,-229.43"/>
<polygon fill="#666666" stroke="#666666" points="338.77,-231.27 341.55,-225.56 335.81,-228.29 338.77,-231.27"/>
</g>
<!-- function -->
<g id="node7" class="node">
<title>function</title>
<path fill="#ede7f6" stroke="#5c6bc0" d="M448.8,-224C448.8,-224 409.2,-224 409.2,-224 405.6,-224 402,-220.4 402,-216.8 402,-216.8 402,-209.6 402,-209.6 402,-206 405.6,-202.4 409.2,-202.4 409.2,-202.4 448.8,-202.4 448.8,-202.4 452.4,-202.4 456,-206 456,-209.6 456,-209.6 456,-216.8 456,-216.8 456,-220.4 452.4,-224 448.8,-224"/>
<text xml:space="preserve" text-anchor="middle" x="429" y="-208.75" font-family="Helvetica,sans-Serif" font-size="11.00">function</text>
</g>
<!-- any&#45;&gt;function -->
<g id="edge9" class="edge">
<title>any&#45;&gt;function</title>
<path fill="none" stroke="#666666" d="M331.12,-252.25C350.14,-244.86 375.66,-234.94 395.88,-227.08"/>
<polygon fill="#666666" stroke="#666666" points="396.54,-229.07 401.38,-224.94 395.02,-225.16 396.54,-229.07"/>
</g>
<!-- error -->
<g id="node8" class="node">
<title>error</title>
<path fill="#ffebee" stroke="#c62828" d="M524.8,-224C524.8,-224 485.2,-224 485.2,-224 481.6,-224 478,-220.4 478,-216.8 478,-216.8 478,-209.6 478,-209.6 478,-206 481.6,-202.4 485.2,-202.4 485.2,-202.4 524.8,-202.4 524.8,-202.4 528.4,-202.4 532,-206 532,-209.6 532,-209.6 532,-216.8 532,-216.8 532,-220.4 528.4,-224 524.8,-224"/>
<text xml:space="preserve" text-anchor="middle" x="505" y="-208.75" font-family="Helvetica,sans-Serif" font-size="11.00">error</text>
</g>
<!-- any&#45;&gt;error -->
<g id="edge11" class="edge">
<title>any&#45;&gt;error</title>
<path fill="none" stroke="#666666" d="M331.73,-256.37C364.19,-248.8 419.57,-235.76 467,-224 468.18,-223.71 469.38,-223.41 470.6,-223.1"/>
<polygon fill="#666666" stroke="#666666" points="470.85,-225.21 476.15,-221.7 469.82,-221.13 470.85,-225.21"/>
</g>
<!-- dot2 -->
<g id="node3" class="node">
<title>dot2</title>
<ellipse fill="black" stroke="black" cx="304" cy="-162.6" rx="0.36" ry="0.36"/>
</g>
<!-- dot1&#45;&gt;dot2 -->
<g id="edge2" class="edge">
<title>dot1&#45;&gt;dot2</title>
<path fill="none" stroke="#666666" d="M304,-212.06C304,-209.3 304,-166.41 304,-163.73"/>
</g>
<!-- dot1&#45;&gt;type -->
<!-- scalar -->
<g id="node4" class="node">
<title>scalar</title>
<path fill="#fff3e0" stroke="#fb8c00" d="M323.8,-122.8C323.8,-122.8 284.2,-122.8 284.2,-122.8 280.6,-122.8 277,-119.2 277,-115.6 277,-115.6 277,-108.4 277,-108.4 277,-104.8 280.6,-101.2 284.2,-101.2 284.2,-101.2 323.8,-101.2 323.8,-101.2 327.4,-101.2 331,-104.8 331,-108.4 331,-108.4 331,-115.6 331,-115.6 331,-119.2 327.4,-122.8 323.8,-122.8"/>
<text xml:space="preserve" text-anchor="middle" x="304" y="-107.55" font-family="Helvetica,sans-Serif" font-size="11.00">scalar</text>
</g>
<!-- dot2&#45;&gt;scalar -->
<g id="edge3" class="edge">
<title>dot2&#45;&gt;scalar</title>
<path fill="none" stroke="#666666" d="M304,-161.46C304,-159.8 304,-143.7 304,-130.51"/>
<polygon fill="#666666" stroke="#666666" points="306.1,-130.72 304,-124.72 301.9,-130.72 306.1,-130.72"/>
</g>
<!-- pn -->
<g id="node24" class="node">
<title>pn</title>
<path fill="#ede7f6" stroke="#7986cb" d="M416.8,-173.4C416.8,-173.4 377.2,-173.4 377.2,-173.4 373.6,-173.4 370,-169.8 370,-166.2 370,-166.2 370,-159 370,-159 370,-155.4 373.6,-151.8 377.2,-151.8 377.2,-151.8 416.8,-151.8 416.8,-151.8 420.4,-151.8 424,-155.4 424,-159 424,-159 424,-166.2 424,-166.2 424,-169.8 420.4,-173.4 416.8,-173.4"/>
<text xml:space="preserve" text-anchor="middle" x="397" y="-158.15" font-family="Helvetica,sans-Serif" font-size="11.00">pn</text>
</g>
<!-- dot2&#45;&gt;pn -->
<!-- null -->
<g id="node9" class="node">
<title>null</title>
<path fill="#fff8e1" stroke="#f9a825" d="M57.8,-72.2C57.8,-72.2 18.2,-72.2 18.2,-72.2 14.6,-72.2 11,-68.6 11,-65 11,-65 11,-57.8 11,-57.8 11,-54.2 14.6,-50.6 18.2,-50.6 18.2,-50.6 57.8,-50.6 57.8,-50.6 61.4,-50.6 65,-54.2 65,-57.8 65,-57.8 65,-65 65,-65 65,-68.6 61.4,-72.2 57.8,-72.2"/>
<text xml:space="preserve" text-anchor="middle" x="38" y="-56.95" font-family="Helvetica,sans-Serif" font-size="11.00">null</text>
</g>
<!-- scalar&#45;&gt;null -->
<g id="edge14" class="edge">
<title>scalar&#45;&gt;null</title>
<path fill="none" stroke="#666666" d="M276.84,-107.13C233.96,-100.85 148.05,-87.59 76,-72.2 74.81,-71.95 73.6,-71.68 72.38,-71.4"/>
<polygon fill="#666666" stroke="#666666" points="73.13,-69.42 66.81,-70.09 72.16,-73.51 73.13,-69.42"/>
</g>
<!-- bool -->
<g id="node10" class="node">
<title>bool</title>
<path fill="#fff8e1" stroke="#f9a825" d="M133.8,-72.2C133.8,-72.2 94.2,-72.2 94.2,-72.2 90.6,-72.2 87,-68.6 87,-65 87,-65 87,-57.8 87,-57.8 87,-54.2 90.6,-50.6 94.2,-50.6 94.2,-50.6 133.8,-50.6 133.8,-50.6 137.4,-50.6 141,-54.2 141,-57.8 141,-57.8 141,-65 141,-65 141,-68.6 137.4,-72.2 133.8,-72.2"/>
<text xml:space="preserve" text-anchor="middle" x="114" y="-56.95" font-family="Helvetica,sans-Serif" font-size="11.00">bool</text>
</g>
<!-- scalar&#45;&gt;bool -->
<g id="edge15" class="edge">
<title>scalar&#45;&gt;bool</title>
<path fill="none" stroke="#666666" d="M276.54,-104.01C246.09,-96.26 195.53,-83.37 152,-72.2 150.82,-71.9 149.62,-71.59 148.41,-71.28"/>
<polygon fill="#666666" stroke="#666666" points="149.2,-69.31 142.86,-69.85 148.15,-73.38 149.2,-69.31"/>
</g>
<!-- number -->
<g id="node11" class="node">
<title>number</title>
<path fill="#fff3e0" stroke="#fb8c00" d="M209.8,-72.2C209.8,-72.2 170.2,-72.2 170.2,-72.2 166.6,-72.2 163,-68.6 163,-65 163,-65 163,-57.8 163,-57.8 163,-54.2 166.6,-50.6 170.2,-50.6 170.2,-50.6 209.8,-50.6 209.8,-50.6 213.4,-50.6 217,-54.2 217,-57.8 217,-57.8 217,-65 217,-65 217,-68.6 213.4,-72.2 209.8,-72.2"/>
<text xml:space="preserve" text-anchor="middle" x="190" y="-56.95" font-family="Helvetica,sans-Serif" font-size="11.00">number</text>
</g>
<!-- scalar&#45;&gt;number -->
<g id="edge16" class="edge">
<title>scalar&#45;&gt;number</title>
<path fill="none" stroke="#666666" d="M280.1,-100.81C262.77,-93.42 239.2,-83.37 220.51,-75.41"/>
<polygon fill="#666666" stroke="#666666" points="221.6,-73.59 215.26,-73.17 219.95,-77.45 221.6,-73.59"/>
</g>
<!-- string -->
<g id="node12" class="node">
<title>string</title>
<path fill="#fff8e1" stroke="#f9a825" d="M285.8,-72.2C285.8,-72.2 246.2,-72.2 246.2,-72.2 242.6,-72.2 239,-68.6 239,-65 239,-65 239,-57.8 239,-57.8 239,-54.2 242.6,-50.6 246.2,-50.6 246.2,-50.6 285.8,-50.6 285.8,-50.6 289.4,-50.6 293,-54.2 293,-57.8 293,-57.8 293,-65 293,-65 293,-68.6 289.4,-72.2 285.8,-72.2"/>
<text xml:space="preserve" text-anchor="middle" x="266" y="-56.95" font-family="Helvetica,sans-Serif" font-size="11.00">string</text>
</g>
<!-- scalar&#45;&gt;string -->
<g id="edge17" class="edge">
<title>scalar&#45;&gt;string</title>
<path fill="none" stroke="#666666" d="M296.31,-101.17C291.13,-94.53 284.17,-85.64 278.24,-78.05"/>
<polygon fill="#666666" stroke="#666666" points="280.22,-77.18 274.87,-73.75 276.91,-79.77 280.22,-77.18"/>
</g>
<!-- symbol -->
<g id="node13" class="node">
<title>symbol</title>
<path fill="#fff8e1" stroke="#f9a825" d="M361.8,-72.2C361.8,-72.2 322.2,-72.2 322.2,-72.2 318.6,-72.2 315,-68.6 315,-65 315,-65 315,-57.8 315,-57.8 315,-54.2 318.6,-50.6 322.2,-50.6 322.2,-50.6 361.8,-50.6 361.8,-50.6 365.4,-50.6 369,-54.2 369,-57.8 369,-57.8 369,-65 369,-65 369,-68.6 365.4,-72.2 361.8,-72.2"/>
<text xml:space="preserve" text-anchor="middle" x="342" y="-56.95" font-family="Helvetica,sans-Serif" font-size="11.00">symbol</text>
</g>
<!-- scalar&#45;&gt;symbol -->
<g id="edge18" class="edge">
<title>scalar&#45;&gt;symbol</title>
<path fill="none" stroke="#666666" d="M311.69,-101.17C316.87,-94.53 323.83,-85.64 329.76,-78.05"/>
<polygon fill="#666666" stroke="#666666" points="331.09,-79.77 333.13,-73.75 327.78,-77.18 331.09,-79.77"/>
</g>
<!-- datetime -->
<g id="node14" class="node">
<title>datetime</title>
<path fill="#fff8e1" stroke="#f9a825" d="M437.8,-72.2C437.8,-72.2 398.2,-72.2 398.2,-72.2 394.6,-72.2 391,-68.6 391,-65 391,-65 391,-57.8 391,-57.8 391,-54.2 394.6,-50.6 398.2,-50.6 398.2,-50.6 437.8,-50.6 437.8,-50.6 441.4,-50.6 445,-54.2 445,-57.8 445,-57.8 445,-65 445,-65 445,-68.6 441.4,-72.2 437.8,-72.2"/>
<text xml:space="preserve" text-anchor="middle" x="418" y="-56.95" font-family="Helvetica,sans-Serif" font-size="11.00">datetime</text>
</g>
<!-- scalar&#45;&gt;datetime -->
<g id="edge19" class="edge">
<title>scalar&#45;&gt;datetime</title>
<path fill="none" stroke="#666666" d="M327.9,-100.81C345.23,-93.42 368.8,-83.37 387.49,-75.41"/>
<polygon fill="#666666" stroke="#666666" points="388.05,-77.45 392.74,-73.17 386.4,-73.59 388.05,-77.45"/>
</g>
<!-- binary -->
<g id="node15" class="node">
<title>binary</title>
<path fill="#fff8e1" stroke="#f9a825" d="M513.8,-72.2C513.8,-72.2 474.2,-72.2 474.2,-72.2 470.6,-72.2 467,-68.6 467,-65 467,-65 467,-57.8 467,-57.8 467,-54.2 470.6,-50.6 474.2,-50.6 474.2,-50.6 513.8,-50.6 513.8,-50.6 517.4,-50.6 521,-54.2 521,-57.8 521,-57.8 521,-65 521,-65 521,-68.6 517.4,-72.2 513.8,-72.2"/>
<text xml:space="preserve" text-anchor="middle" x="494" y="-56.95" font-family="Helvetica,sans-Serif" font-size="11.00">binary</text>
</g>
<!-- scalar&#45;&gt;binary -->
<g id="edge20" class="edge">
<title>scalar&#45;&gt;binary</title>
<path fill="none" stroke="#666666" d="M331.46,-104.01C361.91,-96.26 412.47,-83.37 456,-72.2 457.18,-71.9 458.38,-71.59 459.59,-71.28"/>
<polygon fill="#666666" stroke="#666666" points="459.85,-73.38 465.14,-69.85 458.8,-69.31 459.85,-73.38"/>
</g>
<!-- path -->
<g id="node16" class="node">
<title>path</title>
<path fill="#fff8e1" stroke="#f9a825" d="M589.8,-72.2C589.8,-72.2 550.2,-72.2 550.2,-72.2 546.6,-72.2 543,-68.6 543,-65 543,-65 543,-57.8 543,-57.8 543,-54.2 546.6,-50.6 550.2,-50.6 550.2,-50.6 589.8,-50.6 589.8,-50.6 593.4,-50.6 597,-54.2 597,-57.8 597,-57.8 597,-65 597,-65 597,-68.6 593.4,-72.2 589.8,-72.2"/>
<text xml:space="preserve" text-anchor="middle" x="570" y="-56.95" font-family="Helvetica,sans-Serif" font-size="11.00">path</text>
</g>
<!-- scalar&#45;&gt;path -->
<g id="edge21" class="edge">
<title>scalar&#45;&gt;path</title>
<path fill="none" stroke="#666666" d="M331.16,-107.13C374.04,-100.85 459.95,-87.59 532,-72.2 533.19,-71.95 534.4,-71.68 535.62,-71.4"/>
<polygon fill="#666666" stroke="#666666" points="535.84,-73.51 541.19,-70.09 534.87,-69.42 535.84,-73.51"/>
</g>
<!-- container&#45;&gt;dot1 -->
<!-- range -->
<g id="node19" class="node">
<title>range</title>
<path fill="#e8f5e9" stroke="#66bb6a" d="M46.8,-173.4C46.8,-173.4 7.2,-173.4 7.2,-173.4 3.6,-173.4 0,-169.8 0,-166.2 0,-166.2 0,-159 0,-159 0,-155.4 3.6,-151.8 7.2,-151.8 7.2,-151.8 46.8,-151.8 46.8,-151.8 50.4,-151.8 54,-155.4 54,-159 54,-159 54,-166.2 54,-166.2 54,-169.8 50.4,-173.4 46.8,-173.4"/>
<text xml:space="preserve" text-anchor="middle" x="27" y="-158.15" font-family="Helvetica,sans-Serif" font-size="11.00">range</text>
</g>
<!-- container&#45;&gt;range -->
<g id="edge5" class="edge">
<title>container&#45;&gt;range</title>
<path fill="none" stroke="#666666" d="M188.7,-205C158.17,-197.22 108.13,-184.47 65,-173.4 63.82,-173.1 62.62,-172.79 61.41,-172.48"/>
<polygon fill="#666666" stroke="#666666" points="62.2,-170.51 55.86,-171.05 61.15,-174.58 62.2,-170.51"/>
</g>
<!-- array -->
<g id="node20" class="node">
<title>array</title>
<path fill="#e8f5e9" stroke="#66bb6a" d="M122.8,-173.4C122.8,-173.4 83.2,-173.4 83.2,-173.4 79.6,-173.4 76,-169.8 76,-166.2 76,-166.2 76,-159 76,-159 76,-155.4 79.6,-151.8 83.2,-151.8 83.2,-151.8 122.8,-151.8 122.8,-151.8 126.4,-151.8 130,-155.4 130,-159 130,-159 130,-166.2 130,-166.2 130,-169.8 126.4,-173.4 122.8,-173.4"/>
<text xml:space="preserve" text-anchor="middle" x="103" y="-158.15" font-family="Helvetica,sans-Serif" font-size="11.00">array</text>
</g>
<!-- container&#45;&gt;array -->
<g id="edge6" class="edge">
<title>container&#45;&gt;array</title>
<path fill="none" stroke="#666666" d="M193.1,-202.01C175.77,-194.62 152.2,-184.57 133.51,-176.61"/>
<polygon fill="#666666" stroke="#666666" points="134.6,-174.79 128.26,-174.37 132.95,-178.65 134.6,-174.79"/>
</g>
<!-- map -->
<g id="node21" class="node">
<title>map</title>
<path fill="#e8f5e9" stroke="#66bb6a" d="M198.8,-173.4C198.8,-173.4 159.2,-173.4 159.2,-173.4 155.6,-173.4 152,-169.8 152,-166.2 152,-166.2 152,-159 152,-159 152,-155.4 155.6,-151.8 159.2,-151.8 159.2,-151.8 198.8,-151.8 198.8,-151.8 202.4,-151.8 206,-155.4 206,-159 206,-159 206,-166.2 206,-166.2 206,-169.8 202.4,-173.4 198.8,-173.4"/>
<text xml:space="preserve" text-anchor="middle" x="179" y="-158.15" font-family="Helvetica,sans-Serif" font-size="11.00">map</text>
</g>
<!-- container&#45;&gt;map -->
<g id="edge7" class="edge">
<title>container&#45;&gt;map</title>
<path fill="none" stroke="#666666" d="M209.31,-202.37C204.13,-195.73 197.17,-186.84 191.24,-179.25"/>
<polygon fill="#666666" stroke="#666666" points="193.22,-178.38 187.87,-174.95 189.91,-180.97 193.22,-178.38"/>
</g>
<!-- element -->
<g id="node22" class="node">
<title>element</title>
<path fill="#e8f5e9" stroke="#66bb6a" d="M274.8,-173.4C274.8,-173.4 235.2,-173.4 235.2,-173.4 231.6,-173.4 228,-169.8 228,-166.2 228,-166.2 228,-159 228,-159 228,-155.4 231.6,-151.8 235.2,-151.8 235.2,-151.8 274.8,-151.8 274.8,-151.8 278.4,-151.8 282,-155.4 282,-159 282,-159 282,-166.2 282,-166.2 282,-169.8 278.4,-173.4 274.8,-173.4"/>
<text xml:space="preserve" text-anchor="middle" x="255" y="-158.15" font-family="Helvetica,sans-Serif" font-size="11.00">element</text>
</g>
<!-- container&#45;&gt;element -->
<g id="edge8" class="edge">
<title>container&#45;&gt;element</title>
<path fill="none" stroke="#666666" d="M224.69,-202.37C229.87,-195.73 236.83,-186.84 242.76,-179.25"/>
<polygon fill="#666666" stroke="#666666" points="244.09,-180.97 246.13,-174.95 240.78,-178.38 244.09,-180.97"/>
</g>
<!-- fn -->
<g id="node23" class="node">
<title>fn</title>
<path fill="#ede7f6" stroke="#7986cb" d="M492.8,-173.4C492.8,-173.4 453.2,-173.4 453.2,-173.4 449.6,-173.4 446,-169.8 446,-166.2 446,-166.2 446,-159 446,-159 446,-155.4 449.6,-151.8 453.2,-151.8 453.2,-151.8 492.8,-151.8 492.8,-151.8 496.4,-151.8 500,-155.4 500,-159 500,-159 500,-166.2 500,-166.2 500,-169.8 496.4,-173.4 492.8,-173.4"/>
<text xml:space="preserve" text-anchor="middle" x="473" y="-158.15" font-family="Helvetica,sans-Serif" font-size="11.00">fn</text>
</g>
<!-- function&#45;&gt;fn -->
<g id="edge12" class="edge">
<title>function&#45;&gt;fn</title>
<path fill="none" stroke="#666666" d="M437.9,-202.37C443.91,-195.73 451.96,-186.84 458.83,-179.25"/>
<polygon fill="#666666" stroke="#666666" points="460.32,-180.73 462.79,-174.88 457.21,-177.92 460.32,-180.73"/>
</g>
<!-- function&#45;&gt;pn -->
<g id="edge13" class="edge">
<title>function&#45;&gt;pn</title>
<path fill="none" stroke="#666666" d="M422.52,-202.37C418.24,-195.86 412.53,-187.19 407.6,-179.7"/>
<polygon fill="#666666" stroke="#666666" points="409.57,-178.88 404.52,-175.02 406.06,-181.19 409.57,-178.88"/>
</g>
<!-- int -->
<g id="node17" class="node">
<title>int</title>
<path fill="#fffde7" stroke="#fdd835" d="M171.8,-21.6C171.8,-21.6 132.2,-21.6 132.2,-21.6 128.6,-21.6 125,-18 125,-14.4 125,-14.4 125,-7.2 125,-7.2 125,-3.6 128.6,0 132.2,0 132.2,0 171.8,0 171.8,0 175.4,0 179,-3.6 179,-7.2 179,-7.2 179,-14.4 179,-14.4 179,-18 175.4,-21.6 171.8,-21.6"/>
<text xml:space="preserve" text-anchor="middle" x="152" y="-6.35" font-family="Helvetica,sans-Serif" font-size="11.00">int</text>
</g>
<!-- number&#45;&gt;int -->
<g id="edge22" class="edge">
<title>number&#45;&gt;int</title>
<path fill="none" stroke="#666666" d="M182.31,-50.57C177.13,-43.93 170.17,-35.04 164.24,-27.45"/>
<polygon fill="#666666" stroke="#666666" points="166.22,-26.58 160.87,-23.15 162.91,-29.17 166.22,-26.58"/>
</g>
<!-- float -->
<g id="node18" class="node">
<title>float</title>
<path fill="#fffde7" stroke="#fdd835" d="M247.8,-21.6C247.8,-21.6 208.2,-21.6 208.2,-21.6 204.6,-21.6 201,-18 201,-14.4 201,-14.4 201,-7.2 201,-7.2 201,-3.6 204.6,0 208.2,0 208.2,0 247.8,0 247.8,0 251.4,0 255,-3.6 255,-7.2 255,-7.2 255,-14.4 255,-14.4 255,-18 251.4,-21.6 247.8,-21.6"/>
<text xml:space="preserve" text-anchor="middle" x="228" y="-6.35" font-family="Helvetica,sans-Serif" font-size="11.00">float</text>
</g>
<!-- number&#45;&gt;float -->
<g id="edge23" class="edge">
<title>number&#45;&gt;float</title>
<path fill="none" stroke="#666666" d="M197.69,-50.57C202.87,-43.93 209.83,-35.04 215.76,-27.45"/>
<polygon fill="#666666" stroke="#666666" points="217.09,-29.17 219.13,-23.15 213.78,-26.58 217.09,-29.17"/>
</g>
<!-- range&#45;&gt;dot2 -->
<!-- pn&#45;&gt;fn -->
</g>
</svg>
