<?xml version="1.0" encoding="UTF-8" standalone="no"?>
<!DOCTYPE svg PUBLIC "-//W3C//DTD SVG 1.1//EN"
 "http://www.w3.org/Graphics/SVG/1.1/DTD/svg11.dtd">
<!-- Generated by graphviz version 14.1.3 (20260303.0454)
 -->
<!-- Title: TypeHierarchy Pages: 1 -->
<svg width="567pt" height="283pt"
 viewBox="0.00 0.00 567.00 283.00" xmlns="http://www.w3.org/2000/svg" xmlns:xlink="http://www.w3.org/1999/xlink">
<g id="graph0" class="graph" transform="scale(1 1) rotate(0) translate(4 278.6)">
<title>TypeHierarchy</title>
<polygon fill="white" stroke="none" points="-4,4 -4,-278.6 563,-278.6 563,4 -4,4"/>
<!-- any -->
<g id="node1" class="node">
<title>any</title>
<path fill="#e8f0fe" stroke="#4285f4" stroke-width="1.5" d="M323.8,-274.6C323.8,-274.6 284.2,-274.6 284.2,-274.6 280.6,-274.6 277,-271 277,-267.4 277,-267.4 277,-260.2 277,-260.2 277,-256.6 280.6,-253 284.2,-253 284.2,-253 323.8,-253 323.8,-253 327.4,-253 331,-256.6 331,-260.2 331,-260.2 331,-267.4 331,-267.4 331,-271 327.4,-274.6 323.8,-274.6"/>
<text xml:space="preserve" text-anchor="middle" x="304" y="-259.35" font-family="Helvetica,sans-Serif" font-size="11.00">any</text>
</g>
<!-- dot1 -->
<g id="node2" class="node">
<title>dot1</title>
<ellipse fill="black" stroke="black" cx="304" cy="-213.2" rx="0.36" ry="0.36"/>
</g>
<!-- any&#45;&gt;dot1 -->
<g id="edge1" class="edge">
<title>any&#45;&gt;dot1</title>
<path fill="none" stroke="#666666" d="M304,-252.49C304,-238.67 304,-215.69 304,-214.27"/>
</g>
<!-- container -->
<g id="node5" class="node">
<title>container</title>
<path fill="#e8f5e9" stroke="#43a047" d="M274.69,-224C274.69,-224 233.32,-224 233.32,-224 229.72,-224 226.12,-220.4 226.12,-216.8 226.12,-216.8 226.12,-209.6 226.12,-209.6 226.12,-206 229.72,-202.4 233.32,-202.4 233.32,-202.4 274.69,-202.4 274.69,-202.4 278.28,-202.4 281.88,-206 281.88,-209.6 281.88,-209.6 281.88,-216.8 281.88,-216.8 281.88,-220.4 278.28,-224 274.69,-224"/>
<text xml:space="preserve" text-anchor="middle" x="254" y="-208.75" font-family="Helvetica,sans-Serif" font-size="11.00">container</text>
</g>
<!-- any&#45;&gt;container -->
<g id="edge4" class="edge">
<title>any&#45;&gt;container</title>
<path fill="none" stroke="#666666" d="M293.4,-252.49C286.5,-245.79 277.39,-236.94 269.67,-229.43"/>
<polygon fill="#666666" stroke="#666666" points="271.44,-228.22 265.67,-225.55 268.51,-231.23 271.44,-228.22"/>
</g>
<!-- type -->
<g id="node6" class="node">
<title>type</title>
<path fill="#f3e5f5" stroke="#8e24aa" d="M372.8,-224C372.8,-224 333.2,-224 333.2,-224 329.6,-224 326,-220.4 326,-216.8 326,-216.8 326,-209.6 326,-209.6 326,-206 329.6,-202.4 333.2,-202.4 333.2,-202.4 372.8,-202.4 372.8,-202.4 376.4,-202.4 380,-206 380,-209.6 380,-209.6 380,-216.8 380,-216.8 380,-220.4 376.4,-224 372.8,-224"/>
<text xml:space="preserve" text-anchor="middle" x="353" y="-208.75" font-family="Helvetica,sans-Serif" font-size="11.00">type</text>
</g>
<!-- any&#45;&gt;type -->
<g id="edge10" class="edge">
<title>any&#45;&gt;type</title>
<path fill="none" stroke="#666666" d="M314.39,-252.49C321.15,-245.79 330.08,-236.94 337.64,-229.43"/>
<polygon fill="#666666" stroke="#666666" points="338.77,-231.27 341.55,-225.56 335.81,-228.29 338.77,-231.27"/>
</g>
<!-- function -->
<g id="node7" class="node">
<title>function</title>
<path fill="#ede7f6" stroke="#5c6bc0" d="M448.8,-224C448.8,-224 409.2,-224 409.2,-224 405.6,-224 402,-220.4 402,-216.8 402,-216.8 402,-209.6 402,-209.6 402,-206 405.6,-202.4 409.2,-202.4 409.2,-202.4 448.8,-202.4 448.8,-202.4 452.4,-202.4 456,-206 456,-209.6 456,-209.6 456,-216.8 456,-216.8 456,-220.4 452.4,-224 448.8,-224"/>
<text xml:space="preserve" text-anchor="middle" x="429" y="-208.75" font-family="Helvetica,sans-Serif" font-size="11.00">function</text>
</g>
<!-- any&#45;&gt;function -->
<g id="edge9" class="edge">
<title>any&#45;&gt;function</title>
<path fill="none" stroke="#666666" d="M331.12,-252.25C350.14,-244.86 375.66,-234.94 395.88,-227.08"/>
<polygon fill="#666666" stroke="#666666" points="396.54,-229.07 401.38,-224.94 395.02,-225.16 396.54,-229.07"/>
</g>
<!-- error -->
<g id="node8" class="node">
<title>error</title>
<path fill="#ffebee" stroke="#c62828" d="M524.8,-224C524.8,-224 485.2,-224 485.2,-224 481.6,-224 478,-220.4 478,-216.8 478,-216.8 478,-209.6 478,-209.6 478,-206 481.6,-202.4 485.2,-202.4 485.2,-202.4 524.8,-202.4 524.8,-202.4 528.4,-202.4 532,-206 532,-209.6 532,-209.6 532,-216.8 532,-216.8 532,-220.4 528.4,-224 524.8,-224"/>
<text xml:space="preserve" text-anchor="middle" x="505" y="-208.75" font-family="Helvetica,sans-Serif" font-size="11.00">error</text>
</g>
<!-- any&#45;&gt;error -->
<g id="edge11" class="edge">
<title>any&#45;&gt;error</title>
<path fill="none" stroke="#666666" d="M331.73,-256.37C364.19,-248.8 419.57,-235.76 467,-224 468.18,-223.71 469.38,-223.41 470.6,-223.1"/>
<polygon fill="#666666" stroke="#666666" points="470.85,-225.21 476.15,-221.7 469.82,-221.13 470.85,-225.21"/>
</g>
<!-- null -->
<g id="node9" class="node">
<title>null</title>
<path fill="#f5f5f5" stroke="#9e9e9e" d="M196.8,-224C196.8,-224 157.2,-224 157.2,-224 153.6,-224 150,-220.4 150,-216.8 150,-216.8 150,-209.6 150,-209.6 150,-206 153.6,-202.4 157.2,-202.4 157.2,-202.4 196.8,-202.4 196.8,-202.4 200.4,-202.4 204,-206 204,-209.6 204,-209.6 204,-216.8 204,-216.8 204,-220.4 200.4,-224 196.8,-224"/>
<text xml:space="preserve" text-anchor="middle" x="177" y="-208.75" font-family="Helvetica,sans-Serif" font-size="11.00">null</text>
</g>
<!-- any&#45;&gt;null -->
<g id="edge12" class="edge">
<title>any&#45;&gt;null</title>
<path fill="none" stroke="#666666" d="M276.44,-252.25C257.04,-244.83 230.97,-234.85 210.38,-226.98"/>
<polygon fill="#666666" stroke="#666666" points="211.4,-225.12 205.05,-224.93 209.9,-229.04 211.4,-225.12"/>
</g>
<!-- dot2 -->
<g id="node3" class="node">
<title>dot2</title>
<ellipse fill="black" stroke="black" cx="304" cy="-162.6" rx="0.36" ry="0.36"/>
</g>
<!-- dot1&#45;&gt;dot2 -->
<g id="edge2" class="edge">
<title>dot1&#45;&gt;dot2</title>
<path fill="none" stroke="#666666" d="M304,-212.06C304,-209.3 304,-166.41 304,-163.73"/>
</g>
<!-- dot1&#45;&gt;type -->
<!-- scalar -->
<g id="node4" class="node">
<title>scalar</title>
<path fill="#fff3e0" stroke="#fb8c00" d="M323.8,-122.8C323.8,-122.8 284.2,-122.8 284.2,-122.8 280.6,-122.8 277,-119.2 277,-115.6 277,-115.6 277,-108.4 277,-108.4 277,-104.8 280.6,-101.2 284.2,-101.2 284.2,-101.2 323.8,-101.2 323.8,-101.2 327.4,-101.2 331,-104.8 331,-108.4 331,-108.4 331,-115.6 331,-115.6 331,-119.2 327.4,-122.8 323.8,-122.8"/>
<text xml:space="preserve" text-anchor="middle" x="304" y="-107.55" font-family="Helvetica,sans-Serif" font-size="11.00">scalar</text>
</g>
<!-- dot2&#45;&gt;scalar -->
<g id="edge3" class="edge">
<title>dot2&#45;&gt;scalar</title>
<path fill="none" stroke="#666666" d="M304,-161.46C304,-159.8 304,-143.7 304,-130.51"/>
<polygon fill="#666666" stroke="#666666" points="306.1,-130.72 304,-124.72 301.9,-130.72 306.1,-130.72"/>
</g>
<!-- fn -->
<g id="node23" class="node">
<title>fn</title>
<path fill="#ede7f6" stroke="#7986cb" d="M416.8,-173.4C416.8,-173.4 377.2,-173.4 377.2,-173.4 373.6,-173.4 370,-169.8 370,-166.2 370,-166.2 370,-159 370,-159 370,-155.4 373.6,-151.8 377.2,-151.8 377.2,-151.8 416.8,-151.8 416.8,-151.8 420.4,-151.8 424,-155.4 424,-159 424,-159 424,-166.2 424,-166.2 424,-169.8 420.4,-173.4 416.8,-173.4"/>
<text xml:space="preserve" text-anchor="middle" x="397" y="-158.15" font-family="Helvetica,sans-Serif" font-size="11.00">fn</text>
</g>
<!-- dot2&#45;&gt;fn -->
<!-- bool -->
<g id="node10" class="node">
<title>bool</title>
<path fill="#fff8e1" stroke="#f9a825" d="M95.8,-72.2C95.8,-72.2 56.2,-72.2 56.2,-72.2 52.6,-72.2 49,-68.6 49,-65 49,-65 49,-57.8 49,-57.8 49,-54.2 52.6,-50.6 56.2,-50.6 56.2,-50.6 95.8,-50.6 95.8,-50.6 99.4,-50.6 103,-54.2 103,-57.8 103,-57.8 103,-65 103,-65 103,-68.6 99.4,-72.2 95.8,-72.2"/>
<text xml:space="preserve" text-anchor="middle" x="76" y="-56.95" font-family="Helvetica,sans-Serif" font-size="11.00">bool</text>
</g>
<!-- scalar&#45;&gt;bool -->
<g id="edge15" class="edge">
<title>scalar&#45;&gt;bool</title>
<path fill="none" stroke="#666666" d="M276.53,-105.85C239.5,-98.79 171.57,-85.49 114,-72.2 112.81,-71.93 111.61,-71.64 110.39,-71.35"/>
<polygon fill="#666666" stroke="#666666" points="111.15,-69.38 104.83,-69.99 110.16,-73.46 111.15,-69.38"/>
</g>
<!-- number -->
<g id="node11" class="node">
<title>number</title>
<path fill="#fff3e0" stroke="#fb8c00" d="M171.8,-72.2C171.8,-72.2 132.2,-72.2 132.2,-72.2 128.6,-72.2 125,-68.6 125,-65 125,-65 125,-57.8 125,-57.8 125,-54.2 128.6,-50.6 132.2,-50.6 132.2,-50.6 171.8,-50.6 171.8,-50.6 175.4,-50.6 179,-54.2 179,-57.8 179,-57.8 179,-65 179,-65 179,-68.6 175.4,-72.2 171.8,-72.2"/>
<text xml:space="preserve" text-anchor="middle" x="152" y="-56.95" font-family="Helvetica,sans-Serif" font-size="11.00">number</text>
</g>
<!-- scalar&#45;&gt;number -->
<g id="edge16" class="edge">
<title>scalar&#45;&gt;number</title>
<path fill="none" stroke="#666666" d="M276.83,-102.31C251.58,-94.24 213.88,-82.19 186.52,-73.44"/>
<polygon fill="#666666" stroke="#666666" points="187.25,-71.47 180.89,-71.64 185.97,-75.47 187.25,-71.47"/>
</g>
<!-- string -->
<g id="node12" class="node">
<title>string</title>
<path fill="#fff8e1" stroke="#f9a825" d="M247.8,-72.2C247.8,-72.2 208.2,-72.2 208.2,-72.2 204.6,-72.2 201,-68.6 201,-65 201,-65 201,-57.8 201,-57.8 201,-54.2 204.6,-50.6 208.2,-50.6 208.2,-50.6 247.8,-50.6 247.8,-50.6 251.4,-50.6 255,-54.2 255,-57.8 255,-57.8 255,-65 255,-65 255,-68.6 251.4,-72.2 247.8,-72.2"/>
<text xml:space="preserve" text-anchor="middle" x="228" y="-56.95" font-family="Helvetica,sans-Serif" font-size="11.00">string</text>
</g>
<!-- scalar&#45;&gt;string -->
<g id="edge17" class="edge">
<title>scalar&#45;&gt;string</title>
<path fill="none" stroke="#666666" d="M288.25,-100.93C277.22,-93.87 262.32,-84.35 250.1,-76.53"/>
<polygon fill="#666666" stroke="#666666" points="251.45,-74.9 245.26,-73.44 249.19,-78.44 251.45,-74.9"/>
</g>
<!-- symbol -->
<g id="node13" class="node">
<title>symbol</title>
<path fill="#fff8e1" stroke="#f9a825" d="M323.8,-72.2C323.8,-72.2 284.2,-72.2 284.2,-72.2 280.6,-72.2 277,-68.6 277,-65 277,-65 277,-57.8 277,-57.8 277,-54.2 280.6,-50.6 284.2,-50.6 284.2,-50.6 323.8,-50.6 323.8,-50.6 327.4,-50.6 331,-54.2 331,-57.8 331,-57.8 331,-65 331,-65 331,-68.6 327.4,-72.2 323.8,-72.2"/>
<text xml:space="preserve" text-anchor="middle" x="304" y="-56.95" font-family="Helvetica,sans-Serif" font-size="11.00">symbol</text>
</g>
<!-- scalar&#45;&gt;symbol -->
<g id="edge18" class="edge">
<title>scalar&#45;&gt;symbol</title>
<path fill="none" stroke="#666666" d="M304,-101.17C304,-95.05 304,-87.02 304,-79.86"/>
<polygon fill="#666666" stroke="#666666" points="306.1,-80.07 304,-74.07 301.9,-80.07 306.1,-80.07"/>
</g>
<!-- datetime -->
<g id="node14" class="node">
<title>datetime</title>
<path fill="#fff8e1" stroke="#f9a825" d="M399.8,-72.2C399.8,-72.2 360.2,-72.2 360.2,-72.2 356.6,-72.2 353,-68.6 353,-65 353,-65 353,-57.8 353,-57.8 353,-54.2 356.6,-50.6 360.2,-50.6 360.2,-50.6 399.8,-50.6 399.8,-50.6 403.4,-50.6 407,-54.2 407,-57.8 407,-57.8 407,-65 407,-65 407,-68.6 403.4,-72.2 399.8,-72.2"/>
<text xml:space="preserve" text-anchor="middle" x="380" y="-56.95" font-family="Helvetica,sans-Serif" font-size="11.00">datetime</text>
</g>
<!-- scalar&#45;&gt;datetime -->
<g id="edge19" class="edge">
<title>scalar&#45;&gt;datetime</title>
<path fill="none" stroke="#666666" d="M319.75,-100.93C330.78,-93.87 345.68,-84.35 357.9,-76.53"/>
<polygon fill="#666666" stroke="#666666" points="358.81,-78.44 362.74,-73.44 356.55,-74.9 358.81,-78.44"/>
</g>
<!-- binary -->
<g id="node15" class="node">
<title>binary</title>
<path fill="#fff8e1" stroke="#f9a825" d="M475.8,-72.2C475.8,-72.2 436.2,-72.2 436.2,-72.2 432.6,-72.2 429,-68.6 429,-65 429,-65 429,-57.8 429,-57.8 429,-54.2 432.6,-50.6 436.2,-50.6 436.2,-50.6 475.8,-50.6 475.8,-50.6 479.4,-50.6 483,-54.2 483,-57.8 483,-57.8 483,-65 483,-65 483,-68.6 479.4,-72.2 475.8,-72.2"/>
<text xml:space="preserve" text-anchor="middle" x="456" y="-56.95" font-family="Helvetica,sans-Serif" font-size="11.00">binary</text>
</g>
<!-- scalar&#45;&gt;binary -->
<g id="edge20" class="edge">
<title>scalar&#45;&gt;binary</title>
<path fill="none" stroke="#666666" d="M331.17,-102.31C356.42,-94.24 394.12,-82.19 421.48,-73.44"/>
<polygon fill="#666666" stroke="#666666" points="422.03,-75.47 427.11,-71.64 420.75,-71.47 422.03,-75.47"/>
</g>
<!-- path -->
<g id="node16" class="node">
<title>path</title>
<path fill="#fff8e1" stroke="#f9a825" d="M551.8,-72.2C551.8,-72.2 512.2,-72.2 512.2,-72.2 508.6,-72.2 505,-68.6 505,-65 505,-65 505,-57.8 505,-57.8 505,-54.2 508.6,-50.6 512.2,-50.6 512.2,-50.6 551.8,-50.6 551.8,-50.6 555.4,-50.6 559,-54.2 559,-57.8 559,-57.8 559,-65 559,-65 559,-68.6 555.4,-72.2 551.8,-72.2"/>
<text xml:space="preserve" text-anchor="middle" x="532" y="-56.95" font-family="Helvetica,sans-Serif" font-size="11.00">path</text>
</g>
<!-- scalar&#45;&gt;path -->
<g id="edge21" class="edge">
<title>scalar&#45;&gt;path</title>
<path fill="none" stroke="#666666" d="M331.47,-105.85C368.5,-98.79 436.43,-85.49 494,-72.2 495.19,-71.93 496.39,-71.64 497.61,-71.35"/>
<polygon fill="#666666" stroke="#666666" points="497.84,-73.46 503.17,-69.99 496.85,-69.38 497.84,-73.46"/>
</g>
<!-- container&#45;&gt;dot1 -->
<!-- range -->
<g id="node19" class="node">
<title>range</title>
<path fill="#e8f5e9" stroke="#66bb6a" d="M46.8,-173.4C46.8,-173.4 7.2,-173.4 7.2,-173.4 3.6,-173.4 0,-169.8 0,-166.2 0,-166.2 0,-159 0,-159 0,-155.4 3.6,-151.8 7.2,-151.8 7.2,-151.8 46.8,-151.8 46.8,-151.8 50.4,-151.8 54,-155.4 54,-159 54,-159 54,-166.2 54,-166.2 54,-169.8 50.4,-173.4 46.8,-173.4"/>
<text xml:space="preserve" text-anchor="middle" x="27" y="-158.15" font-family="Helvetica,sans-Serif" font-size="11.00">range</text>
</g>
<!-- container&#45;&gt;range -->
<g id="edge5" class="edge">
<title>container&#45;&gt;range</title>
<path fill="none" stroke="#666666" d="M225.92,-204.95C222.26,-204.06 218.54,-203.19 215,-202.4 148.71,-187.68 131.24,-188.33 65,-173.4 63.81,-173.13 62.6,-172.85 61.39,-172.57"/>
<polygon fill="#666666" stroke="#666666" points="62.15,-170.59 55.82,-171.22 61.16,-174.67 62.15,-170.59"/>
</g>
<!-- array -->
<g id="node20" class="node">
<title>array</title>
<path fill="#e8f5e9" stroke="#66bb6a" d="M122.8,-173.4C122.8,-173.4 83.2,-173.4 83.2,-173.4 79.6,-173.4 76,-169.8 76,-166.2 76,-166.2 76,-159 76,-159 76,-155.4 79.6,-151.8 83.2,-151.8 83.2,-151.8 122.8,-151.8 122.8,-151.8 126.4,-151.8 130,-155.4 130,-159 130,-159 130,-166.2 130,-166.2 130,-169.8 126.4,-173.4 122.8,-173.4"/>
<text xml:space="preserve" text-anchor="middle" x="103" y="-158.15" font-family="Helvetica,sans-Serif" font-size="11.00">array</text>
</g>
<!-- container&#45;&gt;array -->
<g id="edge6" class="edge">
<title>container&#45;&gt;array</title>
<path fill="none" stroke="#666666" d="M225.95,-203.17C200.9,-195.11 164.12,-183.27 137.32,-174.65"/>
<polygon fill="#666666" stroke="#666666" points="138.18,-172.72 131.83,-172.88 136.9,-176.72 138.18,-172.72"/>
</g>
<!-- map -->
<g id="node21" class="node">
<title>map</title>
<path fill="#e8f5e9" stroke="#66bb6a" d="M198.8,-173.4C198.8,-173.4 159.2,-173.4 159.2,-173.4 155.6,-173.4 152,-169.8 152,-166.2 152,-166.2 152,-159 152,-159 152,-155.4 155.6,-151.8 159.2,-151.8 159.2,-151.8 198.8,-151.8 198.8,-151.8 202.4,-151.8 206,-155.4 206,-159 206,-159 206,-166.2 206,-166.2 206,-169.8 202.4,-173.4 198.8,-173.4"/>
<text xml:space="preserve" text-anchor="middle" x="179" y="-158.15" font-family="Helvetica,sans-Serif" font-size="11.00">map</text>
</g>
<!-- container&#45;&gt;map -->
<g id="edge7" class="edge">
<title>container&#45;&gt;map</title>
<path fill="none" stroke="#666666" d="M238.46,-202.13C227.57,-195.07 212.87,-185.55 200.81,-177.73"/>
<polygon fill="#666666" stroke="#666666" points="202.23,-176.15 196.05,-174.65 199.94,-179.67 202.23,-176.15"/>
</g>
<!-- element -->
<g id="node22" class="node">
<title>element</title>
<path fill="#e8f5e9" stroke="#66bb6a" d="M274.8,-173.4C274.8,-173.4 235.2,-173.4 235.2,-173.4 231.6,-173.4 228,-169.8 228,-166.2 228,-166.2 228,-159 228,-159 228,-155.4 231.6,-151.8 235.2,-151.8 235.2,-151.8 274.8,-151.8 274.8,-151.8 278.4,-151.8 282,-155.4 282,-159 282,-159 282,-166.2 282,-166.2 282,-169.8 278.4,-173.4 274.8,-173.4"/>
<text xml:space="preserve" text-anchor="middle" x="255" y="-158.15" font-family="Helvetica,sans-Serif" font-size="11.00">element</text>
</g>
<!-- container&#45;&gt;element -->
<g id="edge8" class="edge">
<title>container&#45;&gt;element</title>
<path fill="none" stroke="#666666" d="M254.2,-202.37C254.33,-196.25 254.49,-188.22 254.64,-181.06"/>
<polygon fill="#666666" stroke="#666666" points="256.74,-181.31 254.76,-175.27 252.54,-181.22 256.74,-181.31"/>
</g>
<!-- type&#45;&gt;function -->
<!-- function&#45;&gt;error -->
<!-- function&#45;&gt;fn -->
<g id="edge14" class="edge">
<title>function&#45;&gt;fn</title>
<path fill="none" stroke="#666666" d="M422.52,-202.37C418.24,-195.86 412.53,-187.19 407.6,-179.7"/>
<polygon fill="#666666" stroke="#666666" points="409.57,-178.88 404.52,-175.02 406.06,-181.19 409.57,-178.88"/>
</g>
<!-- pn -->
<g id="node24" class="node">
<title>pn</title>
<path fill="#ede7f6" stroke="#7986cb" d="M492.8,-173.4C492.8,-173.4 453.2,-173.4 453.2,-173.4 449.6,-173.4 446,-169.8 446,-166.2 446,-166.2 446,-159 446,-159 446,-155.4 449.6,-151.8 453.2,-151.8 453.2,-151.8 492.8,-151.8 492.8,-151.8 496.4,-151.8 500,-155.4 500,-159 500,-159 500,-166.2 500,-166.2 500,-169.8 496.4,-173.4 492.8,-173.4"/>
<text xml:space="preserve" text-anchor="middle" x="473" y="-158.15" font-family="Helvetica,sans-Serif" font-size="11.00">pn</text>
</g>
<!-- function&#45;&gt;pn -->
<g id="edge13" class="edge">
<title>function&#45;&gt;pn</title>
<path fill="none" stroke="#666666" d="M437.9,-202.37C443.91,-195.73 451.96,-186.84 458.83,-179.25"/>
<polygon fill="#666666" stroke="#666666" points="460.32,-180.73 462.79,-174.88 457.21,-177.92 460.32,-180.73"/>
</g>
<!-- null&#45;&gt;container -->
<!-- int -->
<g id="node17" class="node">
<title>int</title>
<path fill="#fffde7" stroke="#fdd835" d="M133.8,-21.6C133.8,-21.6 94.2,-21.6 94.2,-21.6 90.6,-21.6 87,-18 87,-14.4 87,-14.4 87,-7.2 87,-7.2 87,-3.6 90.6,0 94.2,0 94.2,0 133.8,0 133.8,0 137.4,0 141,-3.6 141,-7.2 141,-7.2 141,-14.4 141,-14.4 141,-18 137.4,-21.6 133.8,-21.6"/>
<text xml:space="preserve" text-anchor="middle" x="114" y="-6.35" font-family="Helvetica,sans-Serif" font-size="11.00">int</text>
</g>
<!-- number&#45;&gt;int -->
<g id="edge22" class="edge">
<title>number&#45;&gt;int</title>
<path fill="none" stroke="#666666" d="M144.31,-50.57C139.13,-43.93 132.17,-35.04 126.24,-27.45"/>
<polygon fill="#666666" stroke="#666666" points="128.22,-26.58 122.87,-23.15 124.91,-29.17 128.22,-26.58"/>
</g>
<!-- float -->
<g id="node18" class="node">
<title>float</title>
<path fill="#fffde7" stroke="#fdd835" d="M209.8,-21.6C209.8,-21.6 170.2,-21.6 170.2,-21.6 166.6,-21.6 163,-18 163,-14.4 163,-14.4 163,-7.2 163,-7.2 163,-3.6 166.6,0 170.2,0 170.2,0 209.8,0 209.8,0 213.4,0 217,-3.6 217,-7.2 217,-7.2 217,-14.4 217,-14.4 217,-18 213.4,-21.6 209.8,-21.6"/>
<text xml:space="preserve" text-anchor="middle" x="190" y="-6.35" font-family="Helvetica,sans-Serif" font-size="11.00">float</text>
</g>
<!-- number&#45;&gt;float -->
<g id="edge23" class="edge">
<title>number&#45;&gt;float</title>
<path fill="none" stroke="#666666" d="M159.69,-50.57C164.87,-43.93 171.83,-35.04 177.76,-27.45"/>
<polygon fill="#666666" stroke="#666666" points="179.09,-29.17 181.13,-23.15 175.78,-26.58 179.09,-29.17"/>
</g>
<!-- range&#45;&gt;array -->
<!-- array&#45;&gt;map -->
<!-- map&#45;&gt;element -->
<!-- element&#45;&gt;dot2 -->
<!-- fn&#45;&gt;pn -->
</g>
</svg>
