<svg id="my-svg" width="100%" xmlns="http://www.w3.org/2000/svg" xmlns:xlink="http://www.w3.org/1999/xlink" class="classDiagram" style="max-width: 1289.14px; background-color: white;" viewBox="0 0 1289.138671875 970" role="graphics-document document" aria-roledescription="class"><style>#my-svg{font-family:"trebuchet ms",verdana,arial,sans-serif;font-size:16px;fill:#333;}@keyframes edge-animation-frame{from{stroke-dashoffset:0;}}@keyframes dash{to{stroke-dashoffset:0;}}#my-svg .edge-animation-slow{stroke-dasharray:9,5!important;stroke-dashoffset:900;animation:dash 50s linear infinite;stroke-linecap:round;}#my-svg .edge-animation-fast{stroke-dasharray:9,5!important;stroke-dashoffset:900;animation:dash 20s linear infinite;stroke-linecap:round;}#my-svg .error-icon{fill:#552222;}#my-svg .error-text{fill:#552222;stroke:#552222;}#my-svg .edge-thickness-normal{stroke-width:1px;}#my-svg .edge-thickness-thick{stroke-width:3.5px;}#my-svg .edge-pattern-solid{stroke-dasharray:0;}#my-svg .edge-thickness-invisible{stroke-width:0;fill:none;}#my-svg .edge-pattern-dashed{stroke-dasharray:3;}#my-svg .edge-pattern-dotted{stroke-dasharray:2;}#my-svg .marker{fill:#333333;stroke:#333333;}#my-svg .marker.cross{stroke:#333333;}#my-svg svg{font-family:"trebuchet ms",verdana,arial,sans-serif;font-size:16px;}#my-svg p{margin:0;}#my-svg g.classGroup text{fill:#9370DB;stroke:none;font-family:"trebuchet ms",verdana,arial,sans-serif;font-size:10px;}#my-svg g.classGroup text .title{font-weight:bolder;}#my-svg .cluster-label text{fill:#333;}#my-svg .cluster-label span{color:#333;}#my-svg .cluster-label span p{background-color:transparent;}#my-svg .cluster rect{fill:#ffffde;stroke:#aaaa33;stroke-width:1px;}#my-svg .cluster text{fill:#333;}#my-svg .cluster span{color:#333;}#my-svg .nodeLabel,#my-svg .edgeLabel{color:#131300;}#my-svg .noteLabel .nodeLabel,#my-svg .noteLabel .edgeLabel{color:black;}#my-svg .edgeLabel .label rect{fill:#ECECFF;}#my-svg .label text{fill:#131300;}#my-svg .labelBkg{background:#ECECFF;}#my-svg .edgeLabel .label span{background:#ECECFF;}#my-svg .classTitle{font-weight:bolder;}#my-svg .node rect,#my-svg .node circle,#my-svg .node ellipse,#my-svg .node polygon,#my-svg .node path{fill:#ECECFF;stroke:#9370DB;stroke-width:1;}#my-svg .divider{stroke:#9370DB;stroke-width:1;}#my-svg g.clickable{cursor:pointer;}#my-svg g.classGroup rect{fill:#ECECFF;stroke:#9370DB;}#my-svg g.classGroup line{stroke:#9370DB;stroke-width:1;}#my-svg .classLabel .box{stroke:none;stroke-width:0;fill:#ECECFF;opacity:0.5;}#my-svg .classLabel .label{fill:#9370DB;font-size:10px;}#my-svg .relation{stroke:#333333;stroke-width:1;fill:none;}#my-svg .dashed-line{stroke-dasharray:3;}#my-svg .dotted-line{stroke-dasharray:1 2;}#my-svg [id$="-compositionStart"],#my-svg .composition{fill:#333333!important;stroke:#333333!important;stroke-width:1;}#my-svg [id$="-compositionEnd"],#my-svg .composition{fill:#333333!important;stroke:#333333!important;stroke-width:1;}#my-svg [id$="-dependencyStart"],#my-svg .dependency{fill:#333333!important;stroke:#333333!important;stroke-width:1;}#my-svg [id$="-dependencyEnd"],#my-svg .dependency{fill:#333333!important;stroke:#333333!important;stroke-width:1;}#my-svg [id$="-extensionStart"],#my-svg .extension{fill:transparent!important;stroke:#333333!important;stroke-width:1;}#my-svg [id$="-extensionEnd"],#my-svg .extension{fill:transparent!important;stroke:#333333!important;stroke-width:1;}#my-svg [id$="-aggregationStart"],#my-svg .aggregation{fill:transparent!important;stroke:#333333!important;stroke-width:1;}#my-svg [id$="-aggregationEnd"],#my-svg .aggregation{fill:transparent!important;stroke:#333333!important;stroke-width:1;}#my-svg [id$="-lollipopStart"],#my-svg .lollipop{fill:#ECECFF!important;stroke:#333333!important;stroke-width:1;}#my-svg [id$="-lollipopEnd"],#my-svg .lollipop{fill:#ECECFF!important;stroke:#333333!important;stroke-width:1;}#my-svg .edgeTerminals{font-size:11px;line-height:initial;}#my-svg .classTitleText{text-anchor:middle;font-size:18px;fill:#333;}#my-svg .edgeLabel[data-look="neo"]{background-color:rgba(232,232,232, 0.8);text-align:center;}#my-svg .edgeLabel[data-look="neo"] p{background-color:rgba(232,232,232, 0.8);}#my-svg .edgeLabel[data-look="neo"] rect{opacity:0.5;background-color:rgba(232,232,232, 0.8);fill:rgba(232,232,232, 0.8);}#my-svg .label-icon{display:inline-block;height:1em;overflow:visible;vertical-align:-0.125em;}#my-svg .node .label-icon path{fill:currentColor;stroke:revert;stroke-width:revert;}#my-svg .node .neo-node{stroke:#9370DB;}#my-svg [data-look="neo"].node rect,#my-svg [data-look="neo"].cluster rect,#my-svg [data-look="neo"].node polygon{stroke:#9370DB;filter:drop-shadow(1px 2px 2px rgba(185, 185, 185, 1));}#my-svg [data-look="neo"].swimlane.cluster rect{filter:none;}#my-svg [data-look="neo"].node path{stroke:#9370DB;stroke-width:1px;}#my-svg [data-look="neo"].node .outer-path{filter:drop-shadow(1px 2px 2px rgba(185, 185, 185, 1));}#my-svg [data-look="neo"].node .neo-line path{stroke:#9370DB;filter:none;}#my-svg [data-look="neo"].node circle{stroke:#9370DB;filter:drop-shadow(1px 2px 2px rgba(185, 185, 185, 1));}#my-svg [data-look="neo"].node circle .state-start{fill:#000000;}#my-svg [data-look="neo"].icon-shape .icon{fill:#9370DB;filter:drop-shadow(1px 2px 2px rgba(185, 185, 185, 1));}#my-svg [data-look="neo"].icon-shape .icon-neo path{stroke:#9370DB;filter:drop-shadow(1px 2px 2px rgba(185, 185, 185, 1));}#my-svg :root{--mermaid-font-family:"trebuchet ms",verdana,arial,sans-serif;}</style><g><defs><marker id="my-svg_class-aggregationStart" class="marker aggregation class" refX="18" refY="7" markerWidth="190" markerHeight="240" orient="auto"><path d="M 18,7 L9,13 L1,7 L9,1 Z"/></marker></defs><defs><marker id="my-svg_class-aggregationEnd" class="marker aggregation class" refX="1" refY="7" markerWidth="20" markerHeight="28" orient="auto"><path d="M 18,7 L9,13 L1,7 L9,1 Z"/></marker></defs><defs><marker id="my-svg_class-aggregationStart-margin" class="marker aggregation class" refX="15" refY="7" markerWidth="190" markerHeight="240" orient="auto" markerUnits="userSpaceOnUse"><path d="M 18,7 L9,13 L1,7 L9,1 Z" style="stroke-width: 2;"/></marker></defs><defs><marker id="my-svg_class-aggregationEnd-margin" class="marker aggregation class" refX="1" refY="7" markerWidth="20" markerHeight="28" orient="auto" markerUnits="userSpaceOnUse"><path d="M 18,7 L9,13 L1,7 L9,1 Z" style="stroke-width: 2;"/></marker></defs><defs><marker id="my-svg_class-extensionStart" class="marker extension class" refX="18" refY="7" markerWidth="20" markerHeight="28" orient="auto" markerUnits="userSpaceOnUse"><path d="M 1,7 L18,13 V 1 Z"/></marker></defs><defs><marker id="my-svg_class-extensionEnd" class="marker extension class" refX="1" refY="7" markerWidth="20" markerHeight="28" orient="auto"><path d="M 1,1 V 13 L18,7 Z"/></marker></defs><marker id="my-svg_class-extensionStart-margin" class="marker extension class" refX="18" refY="7" markerWidth="20" markerHeight="28" orient="auto" markerUnits="userSpaceOnUse" viewBox="0 0 20 14"><polygon points="10,7 18,13 18,1" style="stroke-width: 2; stroke-dasharray: 0;"/></marker><defs><marker id="my-svg_class-extensionEnd-margin" class="marker extension class" refX="9" refY="7" markerWidth="20" markerHeight="28" orient="auto" markerUnits="userSpaceOnUse" viewBox="0 0 20 14"><polygon points="10,1 10,13 18,7" style="stroke-width: 2; stroke-dasharray: 0;"/></marker></defs><defs><marker id="my-svg_class-compositionStart" class="marker composition class" refX="18" refY="7" markerWidth="190" markerHeight="240" orient="auto"><path d="M 18,7 L9,13 L1,7 L9,1 Z"/></marker></defs><defs><marker id="my-svg_class-compositionEnd" class="marker composition class" refX="1" refY="7" markerWidth="20" markerHeight="28" orient="auto"><path d="M 18,7 L9,13 L1,7 L9,1 Z"/></marker></defs><defs><marker id="my-svg_class-compositionStart-margin" class="marker composition class" refX="15" refY="7" markerWidth="190" markerHeight="240" orient="auto" markerUnits="userSpaceOnUse"><path viewBox="0 0 15 15" d="M 18,7 L9,13 L1,7 L9,1 Z" style="stroke-width: 0;"/></marker></defs><defs><marker id="my-svg_class-compositionEnd-margin" class="marker composition class" refX="3.5" refY="7" markerWidth="20" markerHeight="28" orient="auto" markerUnits="userSpaceOnUse"><path d="M 18,7 L9,13 L1,7 L9,1 Z" style="stroke-width: 0;"/></marker></defs><defs><marker id="my-svg_class-dependencyStart" class="marker dependency class" refX="6" refY="7" markerWidth="190" markerHeight="240" orient="auto"><path d="M 5,7 L9,13 L1,7 L9,1 Z"/></marker></defs><defs><marker id="my-svg_class-dependencyEnd" class="marker dependency class" refX="13" refY="7" markerWidth="20" markerHeight="28" orient="auto"><path d="M 18,7 L9,13 L14,7 L9,1 Z"/></marker></defs><defs><marker id="my-svg_class-dependencyStart-margin" class="marker dependency class" refX="4" refY="7" markerWidth="190" markerHeight="240" orient="auto" markerUnits="userSpaceOnUse"><path d="M 5,7 L9,13 L1,7 L9,1 Z" style="stroke-width: 0;"/></marker></defs><defs><marker id="my-svg_class-dependencyEnd-margin" class="marker dependency class" refX="16" refY="7" markerWidth="20" markerHeight="28" orient="auto" markerUnits="userSpaceOnUse"><path d="M 18,7 L9,13 L14,7 L9,1 Z" style="stroke-width: 0;"/></marker></defs><defs><marker id="my-svg_class-lollipopStart" class="marker lollipop class" refX="13" refY="7" markerWidth="190" markerHeight="240" orient="auto"><circle fill="transparent" cx="7" cy="7" r="6"/></marker></defs><defs><marker id="my-svg_class-lollipopEnd" class="marker lollipop class" refX="1" refY="7" markerWidth="190" markerHeight="240" orient="auto"><circle fill="transparent" cx="7" cy="7" r="6"/></marker></defs><defs><marker id="my-svg_class-lollipopStart-margin" class="marker lollipop class" refX="13" refY="7" markerWidth="190" markerHeight="240" orient="auto" markerUnits="userSpaceOnUse"><circle fill="transparent" cx="7" cy="7" r="6" stroke-width="2"/></marker></defs><defs><marker id="my-svg_class-lollipopEnd-margin" class="marker lollipop class" refX="1" refY="7" markerWidth="190" markerHeight="240" orient="auto" markerUnits="userSpaceOnUse"><circle fill="transparent" cx="7" cy="7" r="6" stroke-width="2"/></marker></defs><g class="root"><g class="clusters"/><g class="edgePaths"><path d="M567.48,156.045L508.478,175.538C449.475,195.03,331.47,234.015,272.467,261.674C213.465,289.333,213.465,305.667,213.465,313.833L213.465,322" id="my-svg-id_Item_PackedScalar_1" class="edge-thickness-normal edge-pattern-dashed relation" style=";;;" data-edge="true" data-et="edge" data-id="id_Item_PackedScalar_1" data-points="W3sieCI6NTgzLjg1OTM3NSwieSI6MTUwLjYzNDIzMTc0NjExMDAzfSx7IngiOjIxMy40NjQ4NDM3NSwieSI6MjczfSx7IngiOjIxMy40NjQ4NDM3NSwieSI6MzIyfV0=" data-look="classic" marker-start="url(#my-svg_class-extensionStart)"/><path d="M688.695,241.25L688.695,246.542C688.695,251.833,688.695,262.417,688.695,277.875C688.695,293.333,688.695,313.667,688.695,323.833L688.695,334" id="my-svg-id_Item_TaggedPointerScalar_2" class="edge-thickness-normal edge-pattern-dashed relation" style=";;;" data-edge="true" data-et="edge" data-id="id_Item_TaggedPointerScalar_2" data-points="W3sieCI6Njg4LjY5NTMxMjUsInkiOjIyNH0seyJ4Ijo2ODguNjk1MzEyNSwieSI6MjczfSx7IngiOjY4OC42OTUzMTI1LCJ5IjozMzR9XQ==" data-look="classic" marker-start="url(#my-svg_class-extensionStart)"/><path d="M809.351,168.456L849.428,185.88C889.505,203.304,969.659,238.152,1009.736,271.743C1049.813,305.333,1049.813,337.667,1049.813,353.833L1049.813,370" id="my-svg-id_Item_Container_3" class="edge-thickness-normal edge-pattern-dashed relation" style=";;;" data-edge="true" data-et="edge" data-id="id_Item_Container_3" data-points="W3sieCI6NzkzLjUzMTI1LCJ5IjoxNjEuNTc4NjcyOTU1MDIyNH0seyJ4IjoxMDQ5LjgxMjUsInkiOjI3M30seyJ4IjoxMDQ5LjgxMjUsInkiOjM3MH1d" data-look="classic" marker-start="url(#my-svg_class-extensionStart)"/><path d="M969.976,551.338L961.82,561.281C953.664,571.225,937.353,591.113,929.197,605.223C921.041,619.333,921.041,627.667,921.041,631.833L921.041,636" id="my-svg-id_Container_Map_LMD_TYPE_MAP_4" class="edge-thickness-normal edge-pattern-solid relation" style=";;;" data-edge="true" data-et="edge" data-id="id_Container_Map_LMD_TYPE_MAP_4" data-points="W3sieCI6OTgwLjkxNTY1NDg1NjY4NzksInkiOjUzOH0seyJ4Ijo5MjEuMDQxMDE1NjI1LCJ5Ijo2MTF9LHsieCI6OTIxLjA0MTAxNTYyNSwieSI6NjM2fV0=" data-look="classic" marker-start="url(#my-svg_class-extensionStart)"/><path d="M1129.649,551.338L1137.805,561.281C1145.961,571.225,1162.272,591.113,1170.428,607.223C1178.584,623.333,1178.584,635.667,1178.584,641.833L1178.584,648" id="my-svg-id_Container_List_LMD_TYPE_ARRAY_5" class="edge-thickness-normal edge-pattern-solid relation" style=";;;" data-edge="true" data-et="edge" data-id="id_Container_List_LMD_TYPE_ARRAY_5" data-points="W3sieCI6MTExOC43MDkzNDUxNDMzMTIsInkiOjUzOH0seyJ4IjoxMTc4LjU4Mzk4NDM3NSwieSI6NjExfSx7IngiOjExNzguNTgzOTg0Mzc1LCJ5Ijo2NDh9XQ==" data-look="classic" marker-start="url(#my-svg_class-extensionStart)"/><path d="M921.041,804L921.041,810.167C921.041,816.333,921.041,828.667,921.041,840C921.041,851.333,921.041,861.667,921.041,866.833L921.041,872" id="my-svg-id_Map_LMD_TYPE_MAP_TypeMap_6" class="edge-thickness-normal edge-pattern-dashed relation" style=";;;" data-edge="true" data-et="edge" data-id="id_Map_LMD_TYPE_MAP_TypeMap_6" data-points="W3sieCI6OTIxLjA0MTAxNTYyNSwieSI6ODA0fSx7IngiOjkyMS4wNDEwMTU2MjUsInkiOjg0MX0seyJ4Ijo5MjEuMDQxMDE1NjI1LCJ5Ijo4Nzh9XQ==" data-look="classic" marker-end="url(#my-svg_class-dependencyEnd)"/></g><g class="edgeLabels"><g class="edgeLabel" transform="translate(213.46484375, 273)"><g class="label" data-id="id_Item_PackedScalar_1" transform="translate(-66.8671875, -12)"><foreignObject width="133.734375" height="24"><div xmlns="http://www.w3.org/1999/xhtml" class="labelBkg" style="display: table-cell; white-space: nowrap; line-height: 1.5; max-width: 200px; text-align: center;"><span class="edgeLabel"><p>high byte _type_id</p></span></div></foreignObject></g></g><g class="edgeLabel" transform="translate(688.6953125, 273)"><g class="label" data-id="id_Item_TaggedPointerScalar_2" transform="translate(-100, -24)"><foreignObject width="200" height="48"><div xmlns="http://www.w3.org/1999/xhtml" class="labelBkg" style="display: table; white-space: break-spaces; line-height: 1.5; max-width: 200px; text-align: center; width: 200px;"><span class="edgeLabel"><p>high byte tag plus 56-bit ptr</p></span></div></foreignObject></g></g><g class="edgeLabel" transform="translate(1049.8125, 273)"><g class="label" data-id="id_Item_Container_3" transform="translate(-100, -24)"><foreignObject width="200" height="48"><div xmlns="http://www.w3.org/1999/xhtml" class="labelBkg" style="display: table; white-space: break-spaces; line-height: 1.5; max-width: 200px; text-align: center; width: 200px;"><span class="edgeLabel"><p>raw pointer, type_id at offset 0</p></span></div></foreignObject></g></g><g class="edgeLabel"><g class="label" data-id="id_Container_Map_LMD_TYPE_MAP_4" transform="translate(0, 0)"><foreignObject width="0" height="0"><div xmlns="http://www.w3.org/1999/xhtml" class="labelBkg" style="display: table-cell; white-space: nowrap; line-height: 1.5; max-width: 200px; text-align: center;"><span class="edgeLabel"></span></div></foreignObject></g></g><g class="edgeLabel"><g class="label" data-id="id_Container_List_LMD_TYPE_ARRAY_5" transform="translate(0, 0)"><foreignObject width="0" height="0"><div xmlns="http://www.w3.org/1999/xhtml" class="labelBkg" style="display: table-cell; white-space: nowrap; line-height: 1.5; max-width: 200px; text-align: center;"><span class="edgeLabel"></span></div></foreignObject></g></g><g class="edgeLabel" transform="translate(921.041015625, 841)"><g class="label" data-id="id_Map_LMD_TYPE_MAP_TypeMap_6" transform="translate(-91.0234375, -12)"><foreignObject width="182.046875" height="24"><div xmlns="http://www.w3.org/1999/xhtml" class="labelBkg" style="display: table-cell; white-space: nowrap; line-height: 1.5; max-width: 200px; text-align: center;"><span class="edgeLabel"><p>"shape (owned by JS_06)"</p></span></div></foreignObject></g></g></g><g class="nodes"><g class="node default" id="my-svg-classId-Item-0" data-look="classic" transform="translate(688.6953125, 116)"><g class="basic label-container outer-path"><path d="M-104.8359375 -108 L104.8359375 -108 L104.8359375 108 L-104.8359375 108" stroke="none" stroke-width="0" fill="#ECECFF" style=""/><path d="M-104.8359375 -108 C-47.60881526057908 -108, 9.618306978841844 -108, 104.8359375 -108 M-104.8359375 -108 C-27.67963669393366 -108, 49.47666411213268 -108, 104.8359375 -108 M104.8359375 -108 C104.8359375 -53.59278498098362, 104.8359375 0.8144300380327536, 104.8359375 108 M104.8359375 -108 C104.8359375 -45.385563637101384, 104.8359375 17.22887272579723, 104.8359375 108 M104.8359375 108 C24.85294256842188 108, -55.13005236315624 108, -104.8359375 108 M104.8359375 108 C57.62971042788675 108, 10.423483355773499 108, -104.8359375 108 M-104.8359375 108 C-104.8359375 24.37579560066783, -104.8359375 -59.24840879866434, -104.8359375 -108 M-104.8359375 108 C-104.8359375 24.354981626987694, -104.8359375 -59.29003674602461, -104.8359375 -108" stroke="#9370DB" stroke-width="1.3" fill="none" stroke-dasharray="0 0" style=""/></g><g class="annotation-group text" transform="translate(0, -84)"/><g class="label-group text" transform="translate(-16.875, -84)"><g class="label" style="font-weight: bolder" transform="translate(0,-12)"><foreignObject width="33.75" height="24"><div xmlns="http://www.w3.org/1999/xhtml" style="display: table-cell; white-space: nowrap; line-height: 1.5; max-width: 79px; text-align: center;"><span class="nodeLabel markdown-node-label" style=""><p>Item</p></span></div></foreignObject></g></g><g class="members-group text" transform="translate(-92.8359375, -36)"><g class="label" style="" transform="translate(0,-12)"><foreignObject width="91.296875" height="24"><div xmlns="http://www.w3.org/1999/xhtml" style="display: table-cell; white-space: nowrap; line-height: 1.5; max-width: 137px; text-align: center;"><span class="nodeLabel markdown-node-label" style=""><p>+uint64 item</p></span></div></foreignObject></g><g class="label" style="" transform="translate(0,12)"><foreignObject width="123.8125" height="24"><div xmlns="http://www.w3.org/1999/xhtml" style="display: table-cell; white-space: nowrap; line-height: 1.5; max-width: 169px; text-align: center;"><span class="nodeLabel markdown-node-label" style=""><p>+int64 int_val_56</p></span></div></foreignObject></g><g class="label" style="" transform="translate(0,36)"><foreignObject width="110.15625" height="24"><div xmlns="http://www.w3.org/1999/xhtml" style="display: table-cell; white-space: nowrap; line-height: 1.5; max-width: 156px; text-align: center;"><span class="nodeLabel markdown-node-label" style=""><p>+uint8 bool_val</p></span></div></foreignObject></g><g class="label" style="" transform="translate(0,60)"><foreignObject width="168.796875" height="24"><div xmlns="http://www.w3.org/1999/xhtml" style="display: table-cell; white-space: nowrap; line-height: 1.5; max-width: 205px; text-align: center;"><span class="nodeLabel markdown-node-label" style=""><p>+ptr_56 tagged_pointer</p></span></div></foreignObject></g></g><g class="methods-group text" transform="translate(-92.8359375, 84)"><g class="label" style="" transform="translate(0,-12)"><foreignObject width="135.453125" height="24"><div xmlns="http://www.w3.org/1999/xhtml" style="display: table-cell; white-space: nowrap; line-height: 1.5; max-width: 179px; text-align: center;"><span class="nodeLabel markdown-node-label" style=""><p>+type_id() : TypeId</p></span></div></foreignObject></g></g><g class="divider" style=""><path d="M-104.8359375 -60 C-28.86623531336589 -59.999637673378054, 47.10346687326822 -59.9992753467561, 104.8359375 -59.999 M-104.8359375 -60 C-33.82942210656216 -59.99966134458714, 37.177093286875674 -59.99932268917428, 104.8359375 -59.999" stroke="#9370DB" stroke-width="1.3" fill="none" stroke-dasharray="0 0" style=""/></g><g class="divider" style=""><path d="M-104.8359375 60 C-40.95466127268533 60.00030467260441, 22.926614954629343 60.000609345208815, 104.8359375 60.001 M-104.8359375 60 C-49.916151607551974 60.000261932058805, 5.0036342848960516 60.00052386411761, 104.8359375 60.001" stroke="#9370DB" stroke-width="1.3" fill="none" stroke-dasharray="0 0" style=""/></g></g><g class="node default" id="my-svg-classId-PackedScalar-1" data-look="classic" transform="translate(213.46484375, 454)"><g class="basic label-container outer-path"><path d="M-205.46484375 -132 L205.46484375 -132 L205.46484375 132 L-205.46484375 132" stroke="none" stroke-width="0" fill="#ECECFF" style=""/><path d="M-205.46484375 -132 C-84.53161139774348 -132, 36.40162095451305 -132, 205.46484375 -132 M-205.46484375 -132 C-102.58620037339966 -132, 0.29244300320067396 -132, 205.46484375 -132 M205.46484375 -132 C205.46484375 -72.56388587900386, 205.46484375 -13.12777175800774, 205.46484375 132 M205.46484375 -132 C205.46484375 -69.73590161330432, 205.46484375 -7.471803226608628, 205.46484375 132 M205.46484375 132 C53.91705170765991 132, -97.63074033468018 132, -205.46484375 132 M205.46484375 132 C46.082600448915514 132, -113.29964285216897 132, -205.46484375 132 M-205.46484375 132 C-205.46484375 50.14751613119934, -205.46484375 -31.704967737601322, -205.46484375 -132 M-205.46484375 132 C-205.46484375 74.06946970268231, -205.46484375 16.138939405364624, -205.46484375 -132" stroke="#9370DB" stroke-width="1.3" fill="none" stroke-dasharray="0 0" style=""/></g><g class="annotation-group text" transform="translate(0, -108)"/><g class="label-group text" transform="translate(-48.7890625, -108)"><g class="label" style="font-weight: bolder" transform="translate(0,-12)"><foreignObject width="97.578125" height="24"><div xmlns="http://www.w3.org/1999/xhtml" style="display: table-cell; white-space: nowrap; line-height: 1.5; max-width: 136px; text-align: center;"><span class="nodeLabel markdown-node-label" style=""><p>PackedScalar</p></span></div></foreignObject></g></g><g class="members-group text" transform="translate(-193.46484375, -60)"><g class="label" style="" transform="translate(0,-12)"><foreignObject width="87.234375" height="24"><div xmlns="http://www.w3.org/1999/xhtml" style="display: table-cell; white-space: nowrap; line-height: 1.5; max-width: 153px; text-align: center;"><span class="nodeLabel markdown-node-label" style=""><p>+ITEM_NULL</p></span></div></foreignObject></g><g class="label" style="" transform="translate(0,12)"><foreignObject width="136.890625" height="24"><div xmlns="http://www.w3.org/1999/xhtml" style="display: table-cell; white-space: nowrap; line-height: 1.5; max-width: 208px; text-align: center;"><span class="nodeLabel markdown-node-label" style=""><p>+ITEM_TRUE_FALSE</p></span></div></foreignObject></g><g class="label" style="" transform="translate(0,36)"><foreignObject width="115.359375" height="24"><div xmlns="http://www.w3.org/1999/xhtml" style="display: table-cell; white-space: nowrap; line-height: 1.5; max-width: 174px; text-align: center;"><span class="nodeLabel markdown-node-label" style=""><p>+ITEM_INT int56</p></span></div></foreignObject></g><g class="label" style="" transform="translate(0,60)"><foreignObject width="154.578125" height="24"><div xmlns="http://www.w3.org/1999/xhtml" style="display: table-cell; white-space: nowrap; line-height: 1.5; max-width: 225px; text-align: center;"><span class="nodeLabel markdown-node-label" style=""><p>+ITEM_JS_UNDEFINED</p></span></div></foreignObject></g><g class="label" style="" transform="translate(0,84)"><foreignObject width="102.0625" height="24"><div xmlns="http://www.w3.org/1999/xhtml" style="display: table-cell; white-space: nowrap; line-height: 1.5; max-width: 165px; text-align: center;"><span class="nodeLabel markdown-node-label" style=""><p>+ITEM_JS_TDZ</p></span></div></foreignObject></g><g class="label" style="" transform="translate(0,108)"><foreignObject width="198.140625" height="24"><div xmlns="http://www.w3.org/1999/xhtml" style="display: table-cell; white-space: nowrap; line-height: 1.5; max-width: 253px; text-align: center;"><span class="nodeLabel markdown-node-label" style=""><p>+NUM_SIZED i8..u32 f16 f32</p></span></div></foreignObject></g><g class="label" style="" transform="translate(0,132)"><foreignObject width="338.140625" height="24"><div xmlns="http://www.w3.org/1999/xhtml" style="display: table-cell; white-space: nowrap; line-height: 1.5; max-width: 387px; text-align: center;"><span class="nodeLabel markdown-node-label" style=""><p>+LMD_TYPE_FLOAT common self-tagged double</p></span></div></foreignObject></g></g><g class="methods-group text" transform="translate(-193.46484375, 132)"/><g class="divider" style=""><path d="M-205.46484375 -84 C-42.691466116558445 -83.99960388995348, 120.08191151688311 -83.99920777990695, 205.46484375 -83.999 M-205.46484375 -84 C-61.91988874887471 -83.99965068244187, 81.62506625225058 -83.99930136488373, 205.46484375 -83.999" stroke="#9370DB" stroke-width="1.3" fill="none" stroke-dasharray="0 0" style=""/></g><g class="divider" style=""><path d="M-205.46484375 108 C-47.52902505391597 108.00038433781617, 110.40679364216805 108.00076867563236, 205.46484375 108.001 M-205.46484375 108 C-94.45539341323224 108.00027014220124, 16.554056923535512 108.00054028440249, 205.46484375 108.001" stroke="#9370DB" stroke-width="1.3" fill="none" stroke-dasharray="0 0" style=""/></g></g><g class="node default" id="my-svg-classId-TaggedPointerScalar-2" data-look="classic" transform="translate(688.6953125, 454)"><g class="basic label-container outer-path"><path d="M-219.765625 -120 L219.765625 -120 L219.765625 120 L-219.765625 120" stroke="none" stroke-width="0" fill="#ECECFF" style=""/><path d="M-219.765625 -120 C-114.97115893308171 -120, -10.176692866163421 -120, 219.765625 -120 M-219.765625 -120 C-127.21203767307371 -120, -34.65845034614742 -120, 219.765625 -120 M219.765625 -120 C219.765625 -62.324159810177136, 219.765625 -4.648319620354272, 219.765625 120 M219.765625 -120 C219.765625 -41.015100005037596, 219.765625 37.96979998992481, 219.765625 120 M219.765625 120 C59.8199358517702 120, -100.1257532964596 120, -219.765625 120 M219.765625 120 C79.45791334144513 120, -60.84979831710973 120, -219.765625 120 M-219.765625 120 C-219.765625 35.2234940376686, -219.765625 -49.5530119246628, -219.765625 -120 M-219.765625 120 C-219.765625 55.5817532172852, -219.765625 -8.836493565429606, -219.765625 -120" stroke="#9370DB" stroke-width="1.3" fill="none" stroke-dasharray="0 0" style=""/></g><g class="annotation-group text" transform="translate(0, -96)"/><g class="label-group text" transform="translate(-75.171875, -96)"><g class="label" style="font-weight: bolder" transform="translate(0,-12)"><foreignObject width="150.34375" height="24"><div xmlns="http://www.w3.org/1999/xhtml" style="display: table-cell; white-space: nowrap; line-height: 1.5; max-width: 183px; text-align: center;"><span class="nodeLabel markdown-node-label" style=""><p>TaggedPointerScalar</p></span></div></foreignObject></g></g><g class="members-group text" transform="translate(-207.765625, -48)"><g class="label" style="" transform="translate(0,-12)"><foreignObject width="320.421875" height="24"><div xmlns="http://www.w3.org/1999/xhtml" style="display: table-cell; white-space: nowrap; line-height: 1.5; max-width: 358px; text-align: center;"><span class="nodeLabel markdown-node-label" style=""><p>+INT64 UINT64 number home or owned word</p></span></div></foreignObject></g><g class="label" style="" transform="translate(0,12)"><foreignObject width="304.125" height="24"><div xmlns="http://www.w3.org/1999/xhtml" style="display: table-cell; white-space: nowrap; line-height: 1.5; max-width: 336px; text-align: center;"><span class="nodeLabel markdown-node-label" style=""><p>+FLOAT out-of-band number-home residue</p></span></div></foreignObject></g><g class="label" style="" transform="translate(0,36)"><foreignObject width="278.9375" height="24"><div xmlns="http://www.w3.org/1999/xhtml" style="display: table-cell; white-space: nowrap; line-height: 1.5; max-width: 348px; text-align: center;"><span class="nodeLabel markdown-node-label" style=""><p>+LMD_TYPE_DECIMAL Decimal or BigInt</p></span></div></foreignObject></g><g class="label" style="" transform="translate(0,60)"><foreignObject width="188.546875" height="24"><div xmlns="http://www.w3.org/1999/xhtml" style="display: table-cell; white-space: nowrap; line-height: 1.5; max-width: 256px; text-align: center;"><span class="nodeLabel markdown-node-label" style=""><p>+LMD_TYPE_STRING String</p></span></div></foreignObject></g><g class="label" style="" transform="translate(0,84)"><foreignObject width="201.765625" height="24"><div xmlns="http://www.w3.org/1999/xhtml" style="display: table-cell; white-space: nowrap; line-height: 1.5; max-width: 275px; text-align: center;"><span class="nodeLabel markdown-node-label" style=""><p>+LMD_TYPE_SYMBOL Symbol</p></span></div></foreignObject></g><g class="label" style="" transform="translate(0,108)"><foreignObject width="340.359375" height="24"><div xmlns="http://www.w3.org/1999/xhtml" style="display: table-cell; white-space: nowrap; line-height: 1.5; max-width: 394px; text-align: center;"><span class="nodeLabel markdown-node-label" style=""><p>+LMD_TYPE_DTIME GC or Input-arena DateTime</p></span></div></foreignObject></g></g><g class="methods-group text" transform="translate(-207.765625, 120)"/><g class="divider" style=""><path d="M-219.765625 -72 C-103.49343468821777 -71.99973546320014, 12.77875562356445 -71.99947092640029, 219.765625 -71.999 M-219.765625 -72 C-101.8778800578125 -71.99973178756927, 16.00986488437499 -71.99946357513855, 219.765625 -71.999" stroke="#9370DB" stroke-width="1.3" fill="none" stroke-dasharray="0 0" style=""/></g><g class="divider" style=""><path d="M-219.765625 96 C-56.34918951090273 96.00037179708039, 107.06724597819453 96.00074359416078, 219.765625 96.001 M-219.765625 96 C-62.948830380625765 96.00035678190031, 93.86796423874847 96.00071356380062, 219.765625 96.001" stroke="#9370DB" stroke-width="1.3" fill="none" stroke-dasharray="0 0" style=""/></g></g><g class="node default" id="my-svg-classId-Container-3" data-look="classic" transform="translate(1049.8125, 454)"><g class="basic label-container outer-path"><path d="M-91.3515625 -84 L91.3515625 -84 L91.3515625 84 L-91.3515625 84" stroke="none" stroke-width="0" fill="#ECECFF" style=""/><path d="M-91.3515625 -84 C-24.382589386291087 -84, 42.586383727417825 -84, 91.3515625 -84 M-91.3515625 -84 C-27.46574085079915 -84, 36.4200807984017 -84, 91.3515625 -84 M91.3515625 -84 C91.3515625 -49.32792336778448, 91.3515625 -14.655846735568957, 91.3515625 84 M91.3515625 -84 C91.3515625 -17.435130167276654, 91.3515625 49.12973966544669, 91.3515625 84 M91.3515625 84 C48.59081032437607 84, 5.830058148752144 84, -91.3515625 84 M91.3515625 84 C24.048216366505002 84, -43.255129766989995 84, -91.3515625 84 M-91.3515625 84 C-91.3515625 37.880636524902194, -91.3515625 -8.238726950195613, -91.3515625 -84 M-91.3515625 84 C-91.3515625 33.73387560006631, -91.3515625 -16.532248799867375, -91.3515625 -84" stroke="#9370DB" stroke-width="1.3" fill="none" stroke-dasharray="0 0" style=""/></g><g class="annotation-group text" transform="translate(0, -60)"/><g class="label-group text" transform="translate(-36.703125, -60)"><g class="label" style="font-weight: bolder" transform="translate(0,-12)"><foreignObject width="73.40625" height="24"><div xmlns="http://www.w3.org/1999/xhtml" style="display: table-cell; white-space: nowrap; line-height: 1.5; max-width: 113px; text-align: center;"><span class="nodeLabel markdown-node-label" style=""><p>Container</p></span></div></foreignObject></g></g><g class="members-group text" transform="translate(-79.3515625, -12)"><g class="label" style="" transform="translate(0,-12)"><foreignObject width="113.296875" height="24"><div xmlns="http://www.w3.org/1999/xhtml" style="display: table-cell; white-space: nowrap; line-height: 1.5; max-width: 161px; text-align: center;"><span class="nodeLabel markdown-node-label" style=""><p>+TypeId type_id</p></span></div></foreignObject></g><g class="label" style="" transform="translate(0,12)"><foreignObject width="83.546875" height="24"><div xmlns="http://www.w3.org/1999/xhtml" style="display: table-cell; white-space: nowrap; line-height: 1.5; max-width: 131px; text-align: center;"><span class="nodeLabel markdown-node-label" style=""><p>+uint8 flags</p></span></div></foreignObject></g><g class="label" style="" transform="translate(0,36)"><foreignObject width="122" height="24"><div xmlns="http://www.w3.org/1999/xhtml" style="display: table-cell; white-space: nowrap; line-height: 1.5; max-width: 167px; text-align: center;"><span class="nodeLabel markdown-node-label" style=""><p>+map_kind 4 bits</p></span></div></foreignObject></g></g><g class="methods-group text" transform="translate(-79.3515625, 84)"/><g class="divider" style=""><path d="M-91.3515625 -36 C-26.860814262376238 -35.99964701890984, 37.629933975247525 -35.99929403781969, 91.3515625 -35.999 M-91.3515625 -36 C-24.611412443707096 -35.99963470712361, 42.12873761258581 -35.99926941424722, 91.3515625 -35.999" stroke="#9370DB" stroke-width="1.3" fill="none" stroke-dasharray="0 0" style=""/></g><g class="divider" style=""><path d="M-91.3515625 60 C-41.497005654952545 60.000272871943736, 8.35755119009491 60.000545743887464, 91.3515625 60.001 M-91.3515625 60 C-40.62084302513398 60.000277667497336, 10.109876449732042 60.00055533499468, 91.3515625 60.001" stroke="#9370DB" stroke-width="1.3" fill="none" stroke-dasharray="0 0" style=""/></g></g><g class="node default" id="my-svg-classId-Map_LMD_TYPE_MAP-4" data-look="classic" transform="translate(921.041015625, 720)"><g class="basic label-container outer-path"><path d="M-104.98828125 -84 L104.98828125 -84 L104.98828125 84 L-104.98828125 84" stroke="none" stroke-width="0" fill="#ECECFF" style=""/><path d="M-104.98828125 -84 C-38.83517406732854 -84, 27.317933115342925 -84, 104.98828125 -84 M-104.98828125 -84 C-61.95851137697651 -84, -18.92874150395302 -84, 104.98828125 -84 M104.98828125 -84 C104.98828125 -25.760391801902927, 104.98828125 32.47921639619415, 104.98828125 84 M104.98828125 -84 C104.98828125 -27.428501254536776, 104.98828125 29.142997490926447, 104.98828125 84 M104.98828125 84 C54.135487128102035 84, 3.2826930062040702 84, -104.98828125 84 M104.98828125 84 C54.53760089760905 84, 4.086920545218106 84, -104.98828125 84 M-104.98828125 84 C-104.98828125 50.055348581196206, -104.98828125 16.110697162392412, -104.98828125 -84 M-104.98828125 84 C-104.98828125 19.92392307439586, -104.98828125 -44.15215385120828, -104.98828125 -84" stroke="#9370DB" stroke-width="1.3" fill="none" stroke-dasharray="0 0" style=""/></g><g class="annotation-group text" transform="translate(0, -60)"/><g class="label-group text" transform="translate(-79.2421875, -60)"><g class="label" style="font-weight: bolder" transform="translate(0,-12)"><foreignObject width="158.484375" height="24"><div xmlns="http://www.w3.org/1999/xhtml" style="display: table-cell; white-space: nowrap; line-height: 1.5; max-width: 214px; text-align: center;"><span class="nodeLabel markdown-node-label" style=""><p>Map_LMD_TYPE_MAP</p></span></div></foreignObject></g></g><g class="members-group text" transform="translate(-92.98828125, -12)"><g class="label" style="" transform="translate(0,-12)"><foreignObject width="106.734375" height="24"><div xmlns="http://www.w3.org/1999/xhtml" style="display: table-cell; white-space: nowrap; line-height: 1.5; max-width: 156px; text-align: center;"><span class="nodeLabel markdown-node-label" style=""><p>+TypeMap type</p></span></div></foreignObject></g><g class="label" style="" transform="translate(0,12)"><foreignObject width="75.1875" height="24"><div xmlns="http://www.w3.org/1999/xhtml" style="display: table-cell; white-space: nowrap; line-height: 1.5; max-width: 123px; text-align: center;"><span class="nodeLabel markdown-node-label" style=""><p>+void data</p></span></div></foreignObject></g><g class="label" style="" transform="translate(0,36)"><foreignObject width="98.5625" height="24"><div xmlns="http://www.w3.org/1999/xhtml" style="display: table-cell; white-space: nowrap; line-height: 1.5; max-width: 141px; text-align: center;"><span class="nodeLabel markdown-node-label" style=""><p>+int data_cap</p></span></div></foreignObject></g></g><g class="methods-group text" transform="translate(-92.98828125, 84)"/><g class="divider" style=""><path d="M-104.98828125 -36 C-61.2704879491742 -35.99979179679494, -17.552694648348407 -35.999583593589875, 104.98828125 -35.999 M-104.98828125 -36 C-39.88580192034783 -35.99968995359028, 25.21667740930434 -35.99937990718055, 104.98828125 -35.999" stroke="#9370DB" stroke-width="1.3" fill="none" stroke-dasharray="0 0" style=""/></g><g class="divider" style=""><path d="M-104.98828125 60 C-50.31146199596245 60.0002603948679, 4.365357258075093 60.000520789735795, 104.98828125 60.001 M-104.98828125 60 C-21.223633785329937 60.00039892379638, 62.541013679340125 60.00079784759277, 104.98828125 60.001" stroke="#9370DB" stroke-width="1.3" fill="none" stroke-dasharray="0 0" style=""/></g></g><g class="node default" id="my-svg-classId-List_LMD_TYPE_ARRAY-5" data-look="classic" transform="translate(1178.583984375, 720)"><g class="basic label-container outer-path"><path d="M-102.5546875 -72 L102.5546875 -72 L102.5546875 72 L-102.5546875 72" stroke="none" stroke-width="0" fill="#ECECFF" style=""/><path d="M-102.5546875 -72 C-44.45930949197912 -72, 13.63606851604176 -72, 102.5546875 -72 M-102.5546875 -72 C-40.887840762845684 -72, 20.77900597430863 -72, 102.5546875 -72 M102.5546875 -72 C102.5546875 -41.13409390454286, 102.5546875 -10.268187809085717, 102.5546875 72 M102.5546875 -72 C102.5546875 -37.320482676682246, 102.5546875 -2.640965353364493, 102.5546875 72 M102.5546875 72 C40.912936196310866 72, -20.728815107378267 72, -102.5546875 72 M102.5546875 72 C45.21249039294421 72, -12.129706714111578 72, -102.5546875 72 M-102.5546875 72 C-102.5546875 38.03445990100161, -102.5546875 4.068919802003222, -102.5546875 -72 M-102.5546875 72 C-102.5546875 15.249593397046233, -102.5546875 -41.500813205907534, -102.5546875 -72" stroke="#9370DB" stroke-width="1.3" fill="none" stroke-dasharray="0 0" style=""/></g><g class="annotation-group text" transform="translate(0, -48)"/><g class="label-group text" transform="translate(-86.15625, -48)"><g class="label" style="font-weight: bolder" transform="translate(0,-12)"><foreignObject width="172.3125" height="24"><div xmlns="http://www.w3.org/1999/xhtml" style="display: table-cell; white-space: nowrap; line-height: 1.5; max-width: 229px; text-align: center;"><span class="nodeLabel markdown-node-label" style=""><p>List_LMD_TYPE_ARRAY</p></span></div></foreignObject></g></g><g class="members-group text" transform="translate(-90.5546875, 0)"><g class="label" style="" transform="translate(0,-12)"><foreignObject width="85.40625" height="24"><div xmlns="http://www.w3.org/1999/xhtml" style="display: table-cell; white-space: nowrap; line-height: 1.5; max-width: 131px; text-align: center;"><span class="nodeLabel markdown-node-label" style=""><p>+Item items</p></span></div></foreignObject></g><g class="label" style="" transform="translate(0,12)"><foreignObject width="94.953125" height="24"><div xmlns="http://www.w3.org/1999/xhtml" style="display: table-cell; white-space: nowrap; line-height: 1.5; max-width: 140px; text-align: center;"><span class="nodeLabel markdown-node-label" style=""><p>+int64 length</p></span></div></foreignObject></g></g><g class="methods-group text" transform="translate(-90.5546875, 72)"/><g class="divider" style=""><path d="M-102.5546875 -24 C-54.42574062641373 -23.99976534984384, -6.296793752827455 -23.99953069968768, 102.5546875 -23.999 M-102.5546875 -24 C-41.32543378233897 -23.99970147998492, 19.903819935322062 -23.999402959969842, 102.5546875 -23.999" stroke="#9370DB" stroke-width="1.3" fill="none" stroke-dasharray="0 0" style=""/></g><g class="divider" style=""><path d="M-102.5546875 48 C-44.34482931993661 48.0002837991105, 13.865028860126785 48.000567598221, 102.5546875 48.001 M-102.5546875 48 C-21.53722857481688 48.00039499637169, 59.48023035036624 48.000789992743385, 102.5546875 48.001" stroke="#9370DB" stroke-width="1.3" fill="none" stroke-dasharray="0 0" style=""/></g></g><g class="node default" id="my-svg-classId-TypeMap-6" data-look="classic" transform="translate(921.041015625, 920)"><g class="basic label-container outer-path"><path d="M-44.703125 -42 L44.703125 -42 L44.703125 42 L-44.703125 42" stroke="none" stroke-width="0" fill="#ECECFF" style=""/><path d="M-44.703125 -42 C-9.827952123454693 -42, 25.047220753090613 -42, 44.703125 -42 M-44.703125 -42 C-22.238867528924583 -42, 0.22538994215083363 -42, 44.703125 -42 M44.703125 -42 C44.703125 -19.385566186058345, 44.703125 3.228867627883311, 44.703125 42 M44.703125 -42 C44.703125 -24.58781643337416, 44.703125 -7.175632866748323, 44.703125 42 M44.703125 42 C18.2522688410565 42, -8.198587317886997 42, -44.703125 42 M44.703125 42 C9.453442977788704 42, -25.79623904442259 42, -44.703125 42 M-44.703125 42 C-44.703125 8.482084607210957, -44.703125 -25.035830785578085, -44.703125 -42 M-44.703125 42 C-44.703125 22.15465092696763, -44.703125 2.30930185393526, -44.703125 -42" stroke="#9370DB" stroke-width="1.3" fill="none" stroke-dasharray="0 0" style=""/></g><g class="annotation-group text" transform="translate(0, -18)"/><g class="label-group text" transform="translate(-32.703125, -18)"><g class="label" style="font-weight: bolder" transform="translate(0,-12)"><foreignObject width="65.40625" height="24"><div xmlns="http://www.w3.org/1999/xhtml" style="display: table-cell; white-space: nowrap; line-height: 1.5; max-width: 111px; text-align: center;"><span class="nodeLabel markdown-node-label" style=""><p>TypeMap</p></span></div></foreignObject></g></g><g class="members-group text" transform="translate(-32.703125, 30)"/><g class="methods-group text" transform="translate(-32.703125, 60)"/><g class="divider" style=""><path d="M-44.703125 6 C-25.43135895916509 6.0002155527834, -6.159592918330183 6.0004311055668, 44.703125 6.001 M-44.703125 6 C-17.933762501442676 6.000299412652902, 8.835599997114649 6.000598825305805, 44.703125 6.001" stroke="#9370DB" stroke-width="1.3" fill="none" stroke-dasharray="0 0" style=""/></g><g class="divider" style=""><path d="M-44.703125 24 C-14.956195926282565 24.000332716438436, 14.79073314743487 24.00066543287687, 44.703125 24.001 M-44.703125 24 C-14.332902094527768 24.00033968791785, 16.037320810944465 24.000679375835706, 44.703125 24.001" stroke="#9370DB" stroke-width="1.3" fill="none" stroke-dasharray="0 0" style=""/></g></g></g></g></g><defs><filter id="my-svg-drop-shadow" height="130%" width="130%"><feDropShadow dx="4" dy="4" stdDeviation="0" flood-opacity="0.06" flood-color="#000000"/></filter></defs><defs><filter id="my-svg-drop-shadow-small" height="150%" width="150%"><feDropShadow dx="2" dy="2" stdDeviation="0" flood-opacity="0.06" flood-color="#000000"/></filter></defs></svg>