<svg id="my-svg" width="100%" xmlns="http://www.w3.org/2000/svg" xmlns:xlink="http://www.w3.org/1999/xlink" class="classDiagram" style="max-width: 833.477px; background-color: white;" viewBox="0 0 833.4765625 812" role="graphics-document document" aria-roledescription="class"><style>#my-svg{font-family:"trebuchet ms",verdana,arial,sans-serif;font-size:16px;fill:#333;}@keyframes edge-animation-frame{from{stroke-dashoffset:0;}}@keyframes dash{to{stroke-dashoffset:0;}}#my-svg .edge-animation-slow{stroke-dasharray:9,5!important;stroke-dashoffset:900;animation:dash 50s linear infinite;stroke-linecap:round;}#my-svg .edge-animation-fast{stroke-dasharray:9,5!important;stroke-dashoffset:900;animation:dash 20s linear infinite;stroke-linecap:round;}#my-svg .error-icon{fill:#552222;}#my-svg .error-text{fill:#552222;stroke:#552222;}#my-svg .edge-thickness-normal{stroke-width:1px;}#my-svg .edge-thickness-thick{stroke-width:3.5px;}#my-svg .edge-pattern-solid{stroke-dasharray:0;}#my-svg .edge-thickness-invisible{stroke-width:0;fill:none;}#my-svg .edge-pattern-dashed{stroke-dasharray:3;}#my-svg .edge-pattern-dotted{stroke-dasharray:2;}#my-svg .marker{fill:#333333;stroke:#333333;}#my-svg .marker.cross{stroke:#333333;}#my-svg svg{font-family:"trebuchet ms",verdana,arial,sans-serif;font-size:16px;}#my-svg p{margin:0;}#my-svg g.classGroup text{fill:#9370DB;stroke:none;font-family:"trebuchet ms",verdana,arial,sans-serif;font-size:10px;}#my-svg g.classGroup text .title{font-weight:bolder;}#my-svg .cluster-label text{fill:#333;}#my-svg .cluster-label span{color:#333;}#my-svg .cluster-label span p{background-color:transparent;}#my-svg .cluster rect{fill:#ffffde;stroke:#aaaa33;stroke-width:1px;}#my-svg .cluster text{fill:#333;}#my-svg .cluster span{color:#333;}#my-svg .nodeLabel,#my-svg .edgeLabel{color:#131300;}#my-svg .noteLabel .nodeLabel,#my-svg .noteLabel .edgeLabel{color:black;}#my-svg .edgeLabel .label rect{fill:#ECECFF;}#my-svg .label text{fill:#131300;}#my-svg .labelBkg{background:#ECECFF;}#my-svg .edgeLabel .label span{background:#ECECFF;}#my-svg .classTitle{font-weight:bolder;}#my-svg .node rect,#my-svg .node circle,#my-svg .node ellipse,#my-svg .node polygon,#my-svg .node path{fill:#ECECFF;stroke:#9370DB;stroke-width:1;}#my-svg .divider{stroke:#9370DB;stroke-width:1;}#my-svg g.clickable{cursor:pointer;}#my-svg g.classGroup rect{fill:#ECECFF;stroke:#9370DB;}#my-svg g.classGroup line{stroke:#9370DB;stroke-width:1;}#my-svg .classLabel .box{stroke:none;stroke-width:0;fill:#ECECFF;opacity:0.5;}#my-svg .classLabel .label{fill:#9370DB;font-size:10px;}#my-svg .relation{stroke:#333333;stroke-width:1;fill:none;}#my-svg .dashed-line{stroke-dasharray:3;}#my-svg .dotted-line{stroke-dasharray:1 2;}#my-svg [id$="-compositionStart"],#my-svg .composition{fill:#333333!important;stroke:#333333!important;stroke-width:1;}#my-svg [id$="-compositionEnd"],#my-svg .composition{fill:#333333!important;stroke:#333333!important;stroke-width:1;}#my-svg [id$="-dependencyStart"],#my-svg .dependency{fill:#333333!important;stroke:#333333!important;stroke-width:1;}#my-svg [id$="-dependencyEnd"],#my-svg .dependency{fill:#333333!important;stroke:#333333!important;stroke-width:1;}#my-svg [id$="-extensionStart"],#my-svg .extension{fill:transparent!important;stroke:#333333!important;stroke-width:1;}#my-svg [id$="-extensionEnd"],#my-svg .extension{fill:transparent!important;stroke:#333333!important;stroke-width:1;}#my-svg [id$="-aggregationStart"],#my-svg .aggregation{fill:transparent!important;stroke:#333333!important;stroke-width:1;}#my-svg [id$="-aggregationEnd"],#my-svg .aggregation{fill:transparent!important;stroke:#333333!important;stroke-width:1;}#my-svg [id$="-lollipopStart"],#my-svg .lollipop{fill:#ECECFF!important;stroke:#333333!important;stroke-width:1;}#my-svg [id$="-lollipopEnd"],#my-svg .lollipop{fill:#ECECFF!important;stroke:#333333!important;stroke-width:1;}#my-svg .edgeTerminals{font-size:11px;line-height:initial;}#my-svg .classTitleText{text-anchor:middle;font-size:18px;fill:#333;}#my-svg .edgeLabel[data-look="neo"]{background-color:rgba(232,232,232, 0.8);text-align:center;}#my-svg .edgeLabel[data-look="neo"] p{background-color:rgba(232,232,232, 0.8);}#my-svg .edgeLabel[data-look="neo"] rect{opacity:0.5;background-color:rgba(232,232,232, 0.8);fill:rgba(232,232,232, 0.8);}#my-svg .label-icon{display:inline-block;height:1em;overflow:visible;vertical-align:-0.125em;}#my-svg .node .label-icon path{fill:currentColor;stroke:revert;stroke-width:revert;}#my-svg .node .neo-node{stroke:#9370DB;}#my-svg [data-look="neo"].node rect,#my-svg [data-look="neo"].cluster rect,#my-svg [data-look="neo"].node polygon{stroke:#9370DB;filter:drop-shadow(1px 2px 2px rgba(185, 185, 185, 1));}#my-svg [data-look="neo"].node path{stroke:#9370DB;stroke-width:1px;}#my-svg [data-look="neo"].node .outer-path{filter:drop-shadow(1px 2px 2px rgba(185, 185, 185, 1));}#my-svg [data-look="neo"].node .neo-line path{stroke:#9370DB;filter:none;}#my-svg [data-look="neo"].node circle{stroke:#9370DB;filter:drop-shadow(1px 2px 2px rgba(185, 185, 185, 1));}#my-svg [data-look="neo"].node circle .state-start{fill:#000000;}#my-svg [data-look="neo"].icon-shape .icon{fill:#9370DB;filter:drop-shadow(1px 2px 2px rgba(185, 185, 185, 1));}#my-svg [data-look="neo"].icon-shape .icon-neo path{stroke:#9370DB;filter:drop-shadow(1px 2px 2px rgba(185, 185, 185, 1));}#my-svg :root{--mermaid-font-family:"trebuchet ms",verdana,arial,sans-serif;}</style><g><defs><marker id="my-svg_class-aggregationStart" class="marker aggregation class" refX="18" refY="7" markerWidth="190" markerHeight="240" orient="auto"><path d="M 18,7 L9,13 L1,7 L9,1 Z"/></marker></defs><defs><marker id="my-svg_class-aggregationEnd" class="marker aggregation class" refX="1" refY="7" markerWidth="20" markerHeight="28" orient="auto"><path d="M 18,7 L9,13 L1,7 L9,1 Z"/></marker></defs><defs><marker id="my-svg_class-aggregationStart-margin" class="marker aggregation class" refX="15" refY="7" markerWidth="190" markerHeight="240" orient="auto" markerUnits="userSpaceOnUse"><path d="M 18,7 L9,13 L1,7 L9,1 Z" style="stroke-width: 2;"/></marker></defs><defs><marker id="my-svg_class-aggregationEnd-margin" class="marker aggregation class" refX="1" refY="7" markerWidth="20" markerHeight="28" orient="auto" markerUnits="userSpaceOnUse"><path d="M 18,7 L9,13 L1,7 L9,1 Z" style="stroke-width: 2;"/></marker></defs><defs><marker id="my-svg_class-extensionStart" class="marker extension class" refX="18" refY="7" markerWidth="20" markerHeight="28" orient="auto" markerUnits="userSpaceOnUse"><path d="M 1,7 L18,13 V 1 Z"/></marker></defs><defs><marker id="my-svg_class-extensionEnd" class="marker extension class" refX="1" refY="7" markerWidth="20" markerHeight="28" orient="auto"><path d="M 1,1 V 13 L18,7 Z"/></marker></defs><marker id="my-svg_class-extensionStart-margin" class="marker extension class" refX="18" refY="7" markerWidth="20" markerHeight="28" orient="auto" markerUnits="userSpaceOnUse" viewBox="0 0 20 14"><polygon points="10,7 18,13 18,1" style="stroke-width: 2; stroke-dasharray: 0;"/></marker><defs><marker id="my-svg_class-extensionEnd-margin" class="marker extension class" refX="9" refY="7" markerWidth="20" markerHeight="28" orient="auto" markerUnits="userSpaceOnUse" viewBox="0 0 20 14"><polygon points="10,1 10,13 18,7" style="stroke-width: 2; stroke-dasharray: 0;"/></marker></defs><defs><marker id="my-svg_class-compositionStart" class="marker composition class" refX="18" refY="7" markerWidth="190" markerHeight="240" orient="auto"><path d="M 18,7 L9,13 L1,7 L9,1 Z"/></marker></defs><defs><marker id="my-svg_class-compositionEnd" class="marker composition class" refX="1" refY="7" markerWidth="20" markerHeight="28" orient="auto"><path d="M 18,7 L9,13 L1,7 L9,1 Z"/></marker></defs><defs><marker id="my-svg_class-compositionStart-margin" class="marker composition class" refX="15" refY="7" markerWidth="190" markerHeight="240" orient="auto" markerUnits="userSpaceOnUse"><path viewBox="0 0 15 15" d="M 18,7 L9,13 L1,7 L9,1 Z" style="stroke-width: 0;"/></marker></defs><defs><marker id="my-svg_class-compositionEnd-margin" class="marker composition class" refX="3.5" refY="7" markerWidth="20" markerHeight="28" orient="auto" markerUnits="userSpaceOnUse"><path d="M 18,7 L9,13 L1,7 L9,1 Z" style="stroke-width: 0;"/></marker></defs><defs><marker id="my-svg_class-dependencyStart" class="marker dependency class" refX="6" refY="7" markerWidth="190" markerHeight="240" orient="auto"><path d="M 5,7 L9,13 L1,7 L9,1 Z"/></marker></defs><defs><marker id="my-svg_class-dependencyEnd" class="marker dependency class" refX="13" refY="7" markerWidth="20" markerHeight="28" orient="auto"><path d="M 18,7 L9,13 L14,7 L9,1 Z"/></marker></defs><defs><marker id="my-svg_class-dependencyStart-margin" class="marker dependency class" refX="4" refY="7" markerWidth="190" markerHeight="240" orient="auto" markerUnits="userSpaceOnUse"><path d="M 5,7 L9,13 L1,7 L9,1 Z" style="stroke-width: 0;"/></marker></defs><defs><marker id="my-svg_class-dependencyEnd-margin" class="marker dependency class" refX="16" refY="7" markerWidth="20" markerHeight="28" orient="auto" markerUnits="userSpaceOnUse"><path d="M 18,7 L9,13 L14,7 L9,1 Z" style="stroke-width: 0;"/></marker></defs><defs><marker id="my-svg_class-lollipopStart" class="marker lollipop class" refX="13" refY="7" markerWidth="190" markerHeight="240" orient="auto"><circle fill="transparent" cx="7" cy="7" r="6"/></marker></defs><defs><marker id="my-svg_class-lollipopEnd" class="marker lollipop class" refX="1" refY="7" markerWidth="190" markerHeight="240" orient="auto"><circle fill="transparent" cx="7" cy="7" r="6"/></marker></defs><defs><marker id="my-svg_class-lollipopStart-margin" class="marker lollipop class" refX="13" refY="7" markerWidth="190" markerHeight="240" orient="auto" markerUnits="userSpaceOnUse"><circle fill="transparent" cx="7" cy="7" r="6" stroke-width="2"/></marker></defs><defs><marker id="my-svg_class-lollipopEnd-margin" class="marker lollipop class" refX="1" refY="7" markerWidth="190" markerHeight="240" orient="auto" markerUnits="userSpaceOnUse"><circle fill="transparent" cx="7" cy="7" r="6" stroke-width="2"/></marker></defs><g class="root"><g class="clusters"/><g class="edgePaths"><path d="M383.154,200L383.154,206.167C383.154,212.333,383.154,224.667,383.154,236C383.154,247.333,383.154,257.667,383.154,262.833L383.154,268" id="my-svg-id_Map_JsCollectionData_1" class="edge-thickness-normal edge-pattern-solid relation" style=";;;" data-edge="true" data-et="edge" data-id="id_Map_JsCollectionData_1" data-points="W3sieCI6MzgzLjE1NDI5Njg3NSwieSI6MjAwfSx7IngiOjM4My4xNTQyOTY4NzUsInkiOjIzN30seyJ4IjozODMuMTU0Mjk2ODc1LCJ5IjoyNzR9XQ==" data-look="classic" marker-end="url(#my-svg_class-dependencyEnd)"/><path d="M233.97,490L222.69,498.167C211.409,506.333,188.847,522.667,177.566,538C166.285,553.333,166.285,567.667,166.285,574.833L166.285,582" id="my-svg-id_JsCollectionData_JsCollectionOrderNode_2" class="edge-thickness-normal edge-pattern-solid relation" style=";;;" data-edge="true" data-et="edge" data-id="id_JsCollectionData_JsCollectionOrderNode_2" data-points="W3sieCI6MjMzLjk3MDQyOTQzODY5NDI1LCJ5Ijo0OTB9LHsieCI6MTY2LjI4NTE1NjI1LCJ5Ijo1Mzl9LHsieCI6MTY2LjI4NTE1NjI1LCJ5Ijo1ODh9XQ==" data-look="classic" marker-end="url(#my-svg_class-dependencyEnd)"/><path d="M532.338,490L543.619,498.167C554.9,506.333,577.462,522.667,588.743,542C600.023,561.333,600.023,583.667,600.023,594.833L600.023,606" id="my-svg-id_JsCollectionData_JsCollectionEntry_3" class="edge-thickness-normal edge-pattern-solid relation" style=";;;" data-edge="true" data-et="edge" data-id="id_JsCollectionData_JsCollectionEntry_3" data-points="W3sieCI6NTMyLjMzODE2NDMxMTMwNTcsInkiOjQ5MH0seyJ4Ijo2MDAuMDIzNDM3NSwieSI6NTM5fSx7IngiOjYwMC4wMjM0Mzc1LCJ5Ijo2MTJ9XQ==" data-look="classic" marker-end="url(#my-svg_class-dependencyEnd)"/></g><g class="edgeLabels"><g class="edgeLabel" transform="translate(383.154296875, 237)"><g class="label" data-id="id_Map_JsCollectionData_1" transform="translate(-76.6875, -12)"><foreignObject width="153.375" height="24"><div xmlns="http://www.w3.org/1999/xhtml" class="labelBkg" style="display: table-cell; white-space: nowrap; line-height: 1.5; max-width: 200px; text-align: center;"><span class="edgeLabel"><p>data ptr via __cd slot</p></span></div></foreignObject></g></g><g class="edgeLabel" transform="translate(166.28515625, 539)"><g class="label" data-id="id_JsCollectionData_JsCollectionOrderNode_2" transform="translate(-100, -24)"><foreignObject width="200" height="48"><div xmlns="http://www.w3.org/1999/xhtml" class="labelBkg" style="display: table; white-space: break-spaces; line-height: 1.5; max-width: 200px; text-align: center; width: 200px;"><span class="edgeLabel"><p>insertion-order doubly-linked list</p></span></div></foreignObject></g></g><g class="edgeLabel" transform="translate(600.0234375, 539)"><g class="label" data-id="id_JsCollectionData_JsCollectionEntry_3" transform="translate(-100, -24)"><foreignObject width="200" height="48"><div xmlns="http://www.w3.org/1999/xhtml" class="labelBkg" style="display: table; white-space: break-spaces; line-height: 1.5; max-width: 200px; text-align: center; width: 200px;"><span class="edgeLabel"><p>hmap stores by canonical key</p></span></div></foreignObject></g></g></g><g class="nodes"><g class="node default" id="my-svg-classId-Map-0" data-look="classic" transform="translate(383.154296875, 104)"><g class="basic label-container outer-path"><path d="M-142.49609375 -96 L142.49609375 -96 L142.49609375 96 L-142.49609375 96" stroke="none" stroke-width="0" fill="#ECECFF" style=""/><path d="M-142.49609375 -96 C-80.38475103101254 -96, -18.273408312025083 -96, 142.49609375 -96 M-142.49609375 -96 C-82.92224482541233 -96, -23.34839590082467 -96, 142.49609375 -96 M142.49609375 -96 C142.49609375 -52.00988471253828, 142.49609375 -8.01976942507656, 142.49609375 96 M142.49609375 -96 C142.49609375 -25.0901048179077, 142.49609375 45.8197903641846, 142.49609375 96 M142.49609375 96 C29.365748616166513 96, -83.76459651766697 96, -142.49609375 96 M142.49609375 96 C53.691754816075715 96, -35.11258411784857 96, -142.49609375 96 M-142.49609375 96 C-142.49609375 24.955751930158513, -142.49609375 -46.088496139682974, -142.49609375 -96 M-142.49609375 96 C-142.49609375 29.74441245713524, -142.49609375 -36.51117508572952, -142.49609375 -96" stroke="#9370DB" stroke-width="1.3" fill="none" stroke-dasharray="0 0" style=""/></g><g class="annotation-group text" transform="translate(0, -72)"/><g class="label-group text" transform="translate(-14.8828125, -72)"><g class="label" style="font-weight: bolder" transform="translate(0,-12)"><foreignObject width="29.765625" height="24"><div xmlns="http://www.w3.org/1999/xhtml" style="display: table-cell; white-space: nowrap; line-height: 1.5; max-width: 79px; text-align: center;"><span class="nodeLabel markdown-node-label" style=""><p>Map</p></span></div></foreignObject></g></g><g class="members-group text" transform="translate(-130.49609375, -24)"><g class="label" style="" transform="translate(0,-12)"><foreignObject width="234.609375" height="24"><div xmlns="http://www.w3.org/1999/xhtml" style="display: table-cell; white-space: nowrap; line-height: 1.5; max-width: 290px; text-align: center;"><span class="nodeLabel markdown-node-label" style=""><p>TypeId type_id = LMD_TYPE_MAP</p></span></div></foreignObject></g><g class="label" style="" transform="translate(0,12)"><foreignObject width="128.4375" height="24"><div xmlns="http://www.w3.org/1999/xhtml" style="display: table-cell; white-space: nowrap; line-height: 1.5; max-width: 178px; text-align: center;"><span class="nodeLabel markdown-node-label" style=""><p>map_kind = PLAIN</p></span></div></foreignObject></g><g class="label" style="" transform="translate(0,36)"><foreignObject width="72.671875" height="24"><div xmlns="http://www.w3.org/1999/xhtml" style="display: table-cell; white-space: nowrap; line-height: 1.5; max-width: 117px; text-align: center;"><span class="nodeLabel markdown-node-label" style=""><p>void* data</p></span></div></foreignObject></g><g class="label" style="" transform="translate(0,60)"><foreignObject width="246.109375" height="24"><div xmlns="http://www.w3.org/1999/xhtml" style="display: table-cell; white-space: nowrap; line-height: 1.5; max-width: 275px; text-align: center;"><span class="nodeLabel markdown-node-label" style=""><p>note "owns __cd string-keyed slot"</p></span></div></foreignObject></g></g><g class="methods-group text" transform="translate(-130.49609375, 96)"/><g class="divider" style=""><path d="M-142.49609375 -48 C-48.87754613078782 -47.9996715048632, 44.74100148842436 -47.9993430097264, 142.49609375 -47.999 M-142.49609375 -48 C-82.66867029695582 -47.99979007346139, -22.841246843911648 -47.99958014692278, 142.49609375 -47.999" stroke="#9370DB" stroke-width="1.3" fill="none" stroke-dasharray="0 0" style=""/></g><g class="divider" style=""><path d="M-142.49609375 72 C-69.14048981977416 72.00025739513976, 4.21511411045168 72.00051479027951, 142.49609375 72.001 M-142.49609375 72 C-81.30060915934752 72.00021472688472, -20.105124568695018 72.00042945376944, 142.49609375 72.001" stroke="#9370DB" stroke-width="1.3" fill="none" stroke-dasharray="0 0" style=""/></g></g><g class="node default" id="my-svg-classId-JsCollectionData-1" data-look="classic" transform="translate(383.154296875, 382)"><g class="basic label-container outer-path"><path d="M-171.3046875 -108 L171.3046875 -108 L171.3046875 108 L-171.3046875 108" stroke="none" stroke-width="0" fill="#ECECFF" style=""/><path d="M-171.3046875 -108 C-99.27977096464829 -108, -27.254854429296586 -108, 171.3046875 -108 M-171.3046875 -108 C-86.51206765200999 -108, -1.7194478040199783 -108, 171.3046875 -108 M171.3046875 -108 C171.3046875 -39.016354361470036, 171.3046875 29.96729127705993, 171.3046875 108 M171.3046875 -108 C171.3046875 -55.98560187061387, 171.3046875 -3.9712037412277397, 171.3046875 108 M171.3046875 108 C92.31401150183339 108, 13.323335503666783 108, -171.3046875 108 M171.3046875 108 C67.57759947697755 108, -36.14948854604489 108, -171.3046875 108 M-171.3046875 108 C-171.3046875 51.12856502732904, -171.3046875 -5.742869945341923, -171.3046875 -108 M-171.3046875 108 C-171.3046875 30.570963712343755, -171.3046875 -46.85807257531249, -171.3046875 -108" stroke="#9370DB" stroke-width="1.3" fill="none" stroke-dasharray="0 0" style=""/></g><g class="annotation-group text" transform="translate(0, -84)"/><g class="label-group text" transform="translate(-62.1875, -84)"><g class="label" style="font-weight: bolder" transform="translate(0,-12)"><foreignObject width="124.375" height="24"><div xmlns="http://www.w3.org/1999/xhtml" style="display: table-cell; white-space: nowrap; line-height: 1.5; max-width: 159px; text-align: center;"><span class="nodeLabel markdown-node-label" style=""><p>JsCollectionData</p></span></div></foreignObject></g></g><g class="members-group text" transform="translate(-159.3046875, -36)"><g class="label" style="" transform="translate(0,-12)"><foreignObject width="112.8125" height="24"><div xmlns="http://www.w3.org/1999/xhtml" style="display: table-cell; white-space: nowrap; line-height: 1.5; max-width: 160px; text-align: center;"><span class="nodeLabel markdown-node-label" style=""><p>HashMap* hmap</p></span></div></foreignObject></g><g class="label" style="" transform="translate(0,12)"><foreignObject width="56.34375" height="24"><div xmlns="http://www.w3.org/1999/xhtml" style="display: table-cell; white-space: nowrap; line-height: 1.5; max-width: 98px; text-align: center;"><span class="nodeLabel markdown-node-label" style=""><p>int type</p></span></div></foreignObject></g><g class="label" style="" transform="translate(0,36)"><foreignObject width="92.171875" height="24"><div xmlns="http://www.w3.org/1999/xhtml" style="display: table-cell; white-space: nowrap; line-height: 1.5; max-width: 135px; text-align: center;"><span class="nodeLabel markdown-node-label" style=""><p>bool is_weak</p></span></div></foreignObject></g><g class="label" style="" transform="translate(0,60)"><foreignObject width="256.421875" height="24"><div xmlns="http://www.w3.org/1999/xhtml" style="display: table-cell; white-space: nowrap; line-height: 1.5; max-width: 285px; text-align: center;"><span class="nodeLabel markdown-node-label" style=""><p>JsCollectionOrderNode* order_head</p></span></div></foreignObject></g><g class="label" style="" transform="translate(0,84)"><foreignObject width="245.65625" height="24"><div xmlns="http://www.w3.org/1999/xhtml" style="display: table-cell; white-space: nowrap; line-height: 1.5; max-width: 275px; text-align: center;"><span class="nodeLabel markdown-node-label" style=""><p>JsCollectionOrderNode* order_tail</p></span></div></foreignObject></g></g><g class="methods-group text" transform="translate(-159.3046875, 108)"/><g class="divider" style=""><path d="M-171.3046875 -60 C-83.5422815772867 -59.9997438412013, 4.220124345426598 -59.9994876824026, 171.3046875 -59.999 M-171.3046875 -60 C-88.95299335180847 -59.99975963385664, -6.601299203616946 -59.999519267713275, 171.3046875 -59.999" stroke="#9370DB" stroke-width="1.3" fill="none" stroke-dasharray="0 0" style=""/></g><g class="divider" style=""><path d="M-171.3046875 84 C-59.98946296691808 84.00032490419893, 51.325761566163834 84.00064980839788, 171.3046875 84.001 M-171.3046875 84 C-65.2930697457206 84.00030942415908, 40.7185480085588 84.00061884831817, 171.3046875 84.001" stroke="#9370DB" stroke-width="1.3" fill="none" stroke-dasharray="0 0" style=""/></g></g><g class="node default" id="my-svg-classId-JsCollectionOrderNode-2" data-look="classic" transform="translate(166.28515625, 696)"><g class="basic label-container outer-path"><path d="M-158.28515625 -108 L158.28515625 -108 L158.28515625 108 L-158.28515625 108" stroke="none" stroke-width="0" fill="#ECECFF" style=""/><path d="M-158.28515625 -108 C-82.51150131902845 -108, -6.737846388056909 -108, 158.28515625 -108 M-158.28515625 -108 C-74.96298044031681 -108, 8.359195369366375 -108, 158.28515625 -108 M158.28515625 -108 C158.28515625 -23.55191365368276, 158.28515625 60.89617269263448, 158.28515625 108 M158.28515625 -108 C158.28515625 -51.899036245594225, 158.28515625 4.201927508811551, 158.28515625 108 M158.28515625 108 C34.82966044144017 108, -88.62583536711966 108, -158.28515625 108 M158.28515625 108 C68.05833557493091 108, -22.168485100138184 108, -158.28515625 108 M-158.28515625 108 C-158.28515625 30.825720392826213, -158.28515625 -46.348559214347574, -158.28515625 -108 M-158.28515625 108 C-158.28515625 59.76447390860643, -158.28515625 11.528947817212867, -158.28515625 -108" stroke="#9370DB" stroke-width="1.3" fill="none" stroke-dasharray="0 0" style=""/></g><g class="annotation-group text" transform="translate(0, -84)"/><g class="label-group text" transform="translate(-86.1640625, -84)"><g class="label" style="font-weight: bolder" transform="translate(0,-12)"><foreignObject width="172.328125" height="24"><div xmlns="http://www.w3.org/1999/xhtml" style="display: table-cell; white-space: nowrap; line-height: 1.5; max-width: 201px; text-align: center;"><span class="nodeLabel markdown-node-label" style=""><p>JsCollectionOrderNode</p></span></div></foreignObject></g></g><g class="members-group text" transform="translate(-146.28515625, -36)"><g class="label" style="" transform="translate(0,-12)"><foreignObject width="62.3125" height="24"><div xmlns="http://www.w3.org/1999/xhtml" style="display: table-cell; white-space: nowrap; line-height: 1.5; max-width: 106px; text-align: center;"><span class="nodeLabel markdown-node-label" style=""><p>Item key</p></span></div></foreignObject></g><g class="label" style="" transform="translate(0,12)"><foreignObject width="76.0625" height="24"><div xmlns="http://www.w3.org/1999/xhtml" style="display: table-cell; white-space: nowrap; line-height: 1.5; max-width: 118px; text-align: center;"><span class="nodeLabel markdown-node-label" style=""><p>Item value</p></span></div></foreignObject></g><g class="label" style="" transform="translate(0,36)"><foreignObject width="206.40625" height="24"><div xmlns="http://www.w3.org/1999/xhtml" style="display: table-cell; white-space: nowrap; line-height: 1.5; max-width: 241px; text-align: center;"><span class="nodeLabel markdown-node-label" style=""><p>JsCollectionOrderNode* next</p></span></div></foreignObject></g><g class="label" style="" transform="translate(0,60)"><foreignObject width="206.265625" height="24"><div xmlns="http://www.w3.org/1999/xhtml" style="display: table-cell; white-space: nowrap; line-height: 1.5; max-width: 242px; text-align: center;"><span class="nodeLabel markdown-node-label" style=""><p>JsCollectionOrderNode* prev</p></span></div></foreignObject></g><g class="label" style="" transform="translate(0,84)"><foreignObject width="90.703125" height="24"><div xmlns="http://www.w3.org/1999/xhtml" style="display: table-cell; white-space: nowrap; line-height: 1.5; max-width: 129px; text-align: center;"><span class="nodeLabel markdown-node-label" style=""><p>bool deleted</p></span></div></foreignObject></g></g><g class="methods-group text" transform="translate(-146.28515625, 108)"/><g class="divider" style=""><path d="M-158.28515625 -60 C-85.64379072299832 -59.99977053639378, -13.002425195996636 -59.99954107278757, 158.28515625 -59.999 M-158.28515625 -60 C-50.312728187406464 -59.99965893065838, 57.65969987518707 -59.99931786131675, 158.28515625 -59.999" stroke="#9370DB" stroke-width="1.3" fill="none" stroke-dasharray="0 0" style=""/></g><g class="divider" style=""><path d="M-158.28515625 84 C-58.136745062720436 84.00031635439974, 42.01166612455913 84.00063270879949, 158.28515625 84.001 M-158.28515625 84 C-44.10535944442945 84.00036067752502, 70.0744373611411 84.00072135505003, 158.28515625 84.001" stroke="#9370DB" stroke-width="1.3" fill="none" stroke-dasharray="0 0" style=""/></g></g><g class="node default" id="my-svg-classId-JsCollectionEntry-3" data-look="classic" transform="translate(600.0234375, 696)"><g class="basic label-container outer-path"><path d="M-225.453125 -84 L225.453125 -84 L225.453125 84 L-225.453125 84" stroke="none" stroke-width="0" fill="#ECECFF" style=""/><path d="M-225.453125 -84 C-94.6338385859614 -84, 36.1854478280772 -84, 225.453125 -84 M-225.453125 -84 C-98.39089261957066 -84, 28.67133976085867 -84, 225.453125 -84 M225.453125 -84 C225.453125 -18.648410764706483, 225.453125 46.703178470587034, 225.453125 84 M225.453125 -84 C225.453125 -30.56539297748926, 225.453125 22.86921404502148, 225.453125 84 M225.453125 84 C61.298349022228564 84, -102.85642695554287 84, -225.453125 84 M225.453125 84 C101.46257750986459 84, -22.527969980270825 84, -225.453125 84 M-225.453125 84 C-225.453125 21.87197589928318, -225.453125 -40.25604820143364, -225.453125 -84 M-225.453125 84 C-225.453125 36.11253093009373, -225.453125 -11.774938139812534, -225.453125 -84" stroke="#9370DB" stroke-width="1.3" fill="none" stroke-dasharray="0 0" style=""/></g><g class="annotation-group text" transform="translate(0, -60)"/><g class="label-group text" transform="translate(-65.484375, -60)"><g class="label" style="font-weight: bolder" transform="translate(0,-12)"><foreignObject width="130.96875" height="24"><div xmlns="http://www.w3.org/1999/xhtml" style="display: table-cell; white-space: nowrap; line-height: 1.5; max-width: 165px; text-align: center;"><span class="nodeLabel markdown-node-label" style=""><p>JsCollectionEntry</p></span></div></foreignObject></g></g><g class="members-group text" transform="translate(-213.453125, -12)"><g class="label" style="" transform="translate(0,-12)"><foreignObject width="62.3125" height="24"><div xmlns="http://www.w3.org/1999/xhtml" style="display: table-cell; white-space: nowrap; line-height: 1.5; max-width: 106px; text-align: center;"><span class="nodeLabel markdown-node-label" style=""><p>Item key</p></span></div></foreignObject></g><g class="label" style="" transform="translate(0,12)"><foreignObject width="76.0625" height="24"><div xmlns="http://www.w3.org/1999/xhtml" style="display: table-cell; white-space: nowrap; line-height: 1.5; max-width: 118px; text-align: center;"><span class="nodeLabel markdown-node-label" style=""><p>Item value</p></span></div></foreignObject></g><g class="label" style="" transform="translate(0,36)"><foreignObject width="361.421875" height="24"><div xmlns="http://www.w3.org/1999/xhtml" style="display: table-cell; white-space: nowrap; line-height: 1.5; max-width: 376px; text-align: center;"><span class="nodeLabel markdown-node-label" style=""><p>note "hashmap element; SameValueZero compare"</p></span></div></foreignObject></g></g><g class="methods-group text" transform="translate(-213.453125, 84)"/><g class="divider" style=""><path d="M-225.453125 -36 C-58.853031327654094 -35.99963052165795, 107.74706234469181 -35.99926104331589, 225.453125 -35.999 M-225.453125 -36 C-84.95577802675183 -35.99968841117866, 55.54156894649634 -35.99937682235732, 225.453125 -35.999" stroke="#9370DB" stroke-width="1.3" fill="none" stroke-dasharray="0 0" style=""/></g><g class="divider" style=""><path d="M-225.453125 60 C-80.62964411135786 60.00032118313039, 64.19383677728428 60.000642366260784, 225.453125 60.001 M-225.453125 60 C-120.16603762492792 60.00023350106009, -14.878950249855848 60.000467002120175, 225.453125 60.001" stroke="#9370DB" stroke-width="1.3" fill="none" stroke-dasharray="0 0" style=""/></g></g></g></g></g><defs><filter id="my-svg-drop-shadow" height="130%" width="130%"><feDropShadow dx="4" dy="4" stdDeviation="0" flood-opacity="0.06" flood-color="#000000"/></filter></defs><defs><filter id="my-svg-drop-shadow-small" height="150%" width="150%"><feDropShadow dx="2" dy="2" stdDeviation="0" flood-opacity="0.06" flood-color="#000000"/></filter></defs></svg>